<?xml version="1.0" encoding="UTF-8" ?>
<!DOCTYPE svg PUBLIC "-//W3C//DTD SVG 1.1//EN" "http://www.w3.org/Graphics/SVG/1.1/DTD/svg11.dtd">
<svg width="200pt" height="200pt" viewBox="0 0 200 200" version="1.1" xmlns="http://www.w3.org/2000/svg">
<g id="#e3e3e3ff">
<path fill="#e3e3e3" opacity="1.00" d=" M 85.55 7.87 C 99.37 6.34 113.62 6.61 127.03 10.59 C 147.78 16.48 165.88 30.34 177.87 48.16 C 188.27 63.64 193.49 82.40 192.95 101.02 C 193.32 124.70 183.82 148.33 167.11 165.12 C 151.77 181.26 130.28 191.53 108.01 192.79 C 97.62 193.17 87.08 193.19 76.94 190.56 C 54.08 185.26 33.97 170.31 21.25 150.73 C 12.33 136.87 7.20 120.52 7.04 104.01 C 7.09 98.98 6.88 93.93 7.42 88.91 C 9.48 67.00 20.18 46.21 36.40 31.40 C 49.82 18.71 67.26 10.38 85.55 7.87 M 92.65 10.46 C 77.39 11.37 62.55 16.82 49.83 25.21 L 50.05 25.31 C 36.40 34.12 25.48 47.01 18.53 61.67 C 8.43 82.80 7.27 107.95 15.06 130.01 C 21.94 149.59 35.85 166.59 53.67 177.23 C 67.84 185.78 84.43 190.34 101.00 189.94 C 124.69 190.03 147.99 179.73 164.45 162.79 C 172.81 154.30 179.31 144.05 183.72 133.00 C 189.28 119.14 190.97 103.89 189.30 89.09 C 186.30 63.39 171.45 39.46 149.90 25.18 C 133.23 14.02 112.67 8.44 92.65 10.46 Z" />
</g>
<g id="#ffff36ff">
<path fill="#ffff36" opacity="1.00" d=" M 92.65 10.46 C 112.67 8.44 133.23 14.02 149.90 25.18 C 171.45 39.46 186.30 63.39 189.30 89.09 C 189.10 91.05 188.78 93.01 188.48 94.96 C 187.35 94.00 186.23 93.05 185.12 92.09 C 183.37 71.94 174.06 52.55 159.47 38.55 C 145.55 24.89 126.78 16.39 107.36 14.70 C 107.25 12.67 104.89 12.31 103.36 11.74 C 99.83 11.02 96.22 10.91 92.65 10.46 Z" />
</g>
<g id="#ffff1fff">
<path fill="#ffff1f" opacity="1.00" d=" M 49.83 25.21 C 62.55 16.82 77.39 11.37 92.65 10.46 C 96.22 10.91 99.83 11.02 103.36 11.74 C 104.89 12.31 107.25 12.67 107.36 14.70 C 95.76 13.69 83.90 15.01 72.86 18.77 C 62.03 22.38 51.94 28.19 43.36 35.71 C 44.18 31.02 49.46 29.25 52.72 26.45 C 51.83 26.07 50.94 25.69 50.05 25.31 L 49.83 25.21 Z" />
</g>
<g id="#3b383eff">
<path fill="#3b383e" opacity="1.00" d=" M 72.86 18.77 C 83.90 15.01 95.76 13.69 107.36 14.70 C 126.78 16.39 145.55 24.89 159.47 38.55 C 174.06 52.55 183.37 71.94 185.12 92.09 C 186.23 104.71 184.83 117.63 180.36 129.52 L 180.07 130.29 C 180.02 129.51 179.92 127.97 179.87 127.19 C 177.08 132.15 175.37 137.64 172.26 142.43 C 168.13 148.93 163.62 155.49 157.31 160.07 C 166.09 151.33 173.06 140.77 177.31 129.11 C 178.07 126.55 180.15 123.61 178.14 121.12 C 178.89 117.83 179.67 114.54 180.11 111.19 C 183.04 90.94 177.83 69.69 165.89 53.08 C 151.43 32.51 126.95 19.34 101.76 19.08 C 88.67 18.74 75.57 21.79 63.84 27.56 L 62.83 26.59 C 58.19 27.69 54.49 30.95 50.59 33.51 C 46.61 36.11 43.36 39.59 39.85 42.76 C 48.80 31.13 62.44 24.55 75.73 19.19 C 75.01 19.08 73.58 18.87 72.86 18.77 Z" />
</g>
<g id="#221e20ff">
<path fill="#221e20" opacity="1.00" d=" M 43.36 35.71 C 51.94 28.19 62.03 22.38 72.86 18.77 C 73.58 18.87 75.01 19.08 75.73 19.19 C 62.44 24.55 48.80 31.13 39.85 42.76 C 43.36 39.59 46.61 36.11 50.59 33.51 C 54.49 30.95 58.19 27.69 62.83 26.59 L 63.84 27.56 C 61.61 28.67 59.45 29.90 57.34 31.21 C 44.43 39.19 33.87 50.92 27.24 64.57 C 19.27 80.63 17.01 99.42 20.79 116.93 C 25.31 138.68 39.36 158.16 58.43 169.48 C 80.43 182.85 108.90 184.54 132.41 174.18 C 132.42 174.62 132.43 175.49 132.44 175.93 C 127.91 178.64 122.41 178.95 117.85 181.60 C 121.90 181.17 125.71 179.69 129.55 178.43 C 130.92 177.78 132.36 178.20 133.65 178.80 C 115.98 186.48 95.68 187.77 77.12 182.63 C 56.94 177.13 39.03 163.86 27.79 146.23 C 16.55 128.86 12.08 107.30 15.32 86.88 C 18.23 67.21 28.48 48.86 43.36 35.71 Z" />
<path fill="#221e20" opacity="1.00" d=" M 126.38 66.75 C 126.49 66.51 126.71 66.04 126.83 65.80 C 134.72 65.87 142.61 65.62 150.50 66.01 C 143.13 67.46 135.59 66.40 128.15 67.05 C 127.98 77.56 128.44 88.06 128.31 98.56 C 128.11 109.25 128.25 119.94 128.38 130.62 C 136.47 130.86 144.60 131.29 152.67 130.48 C 153.98 130.39 155.28 130.51 156.59 130.64 C 150.03 134.19 142.37 132.38 135.27 132.86 C 132.31 132.83 129.35 132.92 126.39 132.87 C 126.39 110.83 126.60 88.78 126.38 66.75 Z" />
<path fill="#221e20" opacity="1.00" d=" M 136.81 108.02 C 136.99 106.44 137.21 104.45 139.11 104.08 C 143.12 103.39 147.35 103.31 151.27 104.51 L 149.87 105.25 C 146.18 105.20 142.49 105.16 138.80 105.20 C 138.80 110.48 138.81 115.76 138.82 121.05 C 138.40 120.98 137.56 120.85 137.14 120.79 C 136.87 116.53 136.97 112.27 136.81 108.02 Z" />
<path fill="#221e20" opacity="1.00" d=" M 84.43 134.55 C 89.96 133.08 96.16 137.22 96.73 142.94 C 96.94 146.97 96.73 151.00 96.81 155.02 C 96.79 158.16 97.21 161.60 95.31 164.34 C 92.68 168.67 86.61 170.34 82.16 167.89 C 78.93 166.18 76.64 162.69 76.79 158.98 C 76.80 153.98 76.78 148.99 76.80 143.99 C 76.76 139.58 80.22 135.59 84.43 134.55 M 84.48 142.45 C 84.28 142.81 83.89 143.52 83.70 143.88 C 83.60 149.25 83.59 154.63 83.72 160.00 C 84.38 163.26 89.30 163.13 89.91 159.90 C 90.27 154.90 90.00 149.87 90.05 144.86 C 90.22 142.11 86.35 139.98 84.48 142.45 Z" />
</g>
<g id="#fffd1fff">
<path fill="#fffd1f" opacity="1.00" d=" M 63.84 27.56 C 75.57 21.79 88.67 18.74 101.76 19.08 C 102.59 19.44 103.42 19.81 104.24 20.19 C 103.93 20.93 103.61 21.66 103.30 22.40 C 106.08 26.19 109.86 29.02 113.39 32.06 C 110.98 38.99 109.13 46.11 107.07 53.14 C 104.84 61.04 102.19 68.83 100.36 76.83 C 100.14 76.82 99.69 76.79 99.46 76.78 C 95.45 61.84 90.91 47.05 86.66 32.17 C 82.17 32.23 77.67 32.23 73.18 32.13 C 74.89 37.73 76.80 43.28 78.54 48.87 C 78.32 49.41 77.89 50.48 77.67 51.02 C 74.98 44.52 73.29 37.67 70.79 31.12 C 70.30 29.50 68.77 28.21 67.02 28.39 C 63.71 29.10 60.93 32.09 57.34 31.21 C 59.45 29.90 61.61 28.67 63.84 27.56 Z" />
</g>
<g id="#ffff30ff">
<path fill="#ffff30" opacity="1.00" d=" M 101.76 19.08 C 126.95 19.34 151.43 32.51 165.89 53.08 C 177.83 69.69 183.04 90.94 180.11 111.19 C 180.00 108.70 179.81 106.21 179.65 103.72 C 179.20 103.87 178.31 104.17 177.86 104.33 C 176.60 101.95 174.94 99.83 172.96 98.00 C 170.12 95.35 168.39 91.82 166.52 88.49 C 167.21 82.99 165.82 77.16 162.23 72.87 C 159.31 69.23 154.93 67.15 150.50 66.01 C 147.09 64.81 143.15 64.25 140.55 61.52 C 136.20 57.12 133.21 51.58 128.62 47.39 C 126.33 45.34 124.99 42.55 123.87 39.75 C 124.67 37.22 125.51 34.69 126.31 32.16 C 122.01 32.27 117.69 32.35 113.39 32.06 C 109.86 29.02 106.08 26.19 103.30 22.40 C 103.61 21.66 103.93 20.93 104.24 20.19 C 103.42 19.81 102.59 19.44 101.76 19.08 Z" />
</g>
<g id="#fde000ff">
<path fill="#fde000" opacity="1.00" d=" M 18.53 61.67 C 25.48 47.01 36.40 34.12 50.05 25.31 C 50.94 25.69 51.83 26.07 52.72 26.45 C 49.46 29.25 44.18 31.02 43.36 35.71 C 28.48 48.86 18.23 67.21 15.32 86.88 C 12.08 107.30 16.55 128.86 27.79 146.23 C 39.03 163.86 56.94 177.13 77.12 182.63 C 95.68 187.77 115.98 186.48 133.65 178.80 C 141.89 175.40 149.38 170.43 156.20 164.74 C 158.80 164.78 160.77 163.15 162.62 161.57 C 163.08 161.88 163.99 162.48 164.45 162.79 C 147.99 179.73 124.69 190.03 101.00 189.94 C 84.43 190.34 67.84 185.78 53.67 177.23 C 35.85 166.59 21.94 149.59 15.06 130.01 C 7.27 107.95 8.43 82.80 18.53 61.67 Z" />
</g>
<g id="#ffed0eff">
<path fill="#ffed0e" opacity="1.00" d=" M 57.34 31.21 C 60.93 32.09 63.71 29.10 67.02 28.39 C 68.77 28.21 70.30 29.50 70.79 31.12 C 73.29 37.67 74.98 44.52 77.67 51.02 C 77.89 50.48 78.32 49.41 78.54 48.87 C 82.01 59.31 85.22 69.84 88.76 80.26 C 90.72 86.54 92.82 92.78 94.76 99.07 C 94.33 99.22 93.47 99.52 93.04 99.67 C 91.12 94.59 90.13 89.15 87.68 84.29 C 85.47 81.62 82.92 79.24 80.35 76.91 C 80.97 81.15 81.85 85.43 81.16 89.72 C 80.64 89.61 79.62 89.39 79.10 89.28 C 79.73 84.78 79.25 80.03 77.02 76.01 C 73.58 69.57 66.28 65.52 59.03 65.69 C 52.41 65.74 45.79 65.66 39.18 65.71 C 39.39 64.64 40.16 63.58 39.98 62.48 C 38.44 59.92 36.22 57.84 34.38 55.50 C 32.73 57.87 31.34 60.40 29.80 62.83 C 29.25 63.75 28.42 64.60 27.24 64.57 C 33.87 50.92 44.43 39.19 57.34 31.21 Z" />
</g>
<g id="#2e2a2dff">
<path fill="#2e2a2d" opacity="1.00" d=" M 73.18 32.13 C 77.67 32.23 82.17 32.23 86.66 32.17 C 90.91 47.05 95.45 61.84 99.46 76.78 C 99.69 76.79 100.14 76.82 100.36 76.83 L 101.64 76.82 C 103.28 73.16 104.00 69.20 105.22 65.41 C 109.13 65.65 111.00 69.34 111.48 72.80 C 113.17 66.89 115.26 61.10 117.09 55.23 C 117.51 55.38 118.35 55.69 118.77 55.85 C 118.16 57.70 117.59 59.57 117.00 61.43 C 113.65 71.73 110.53 82.10 107.11 92.37 C 104.39 93.24 104.20 96.34 103.31 98.60 C 101.07 98.73 98.83 98.69 96.60 98.51 C 94.77 93.60 93.41 88.53 91.67 83.58 C 91.31 82.02 90.09 81.01 88.76 80.26 C 85.22 69.84 82.01 59.31 78.54 48.87 C 76.80 43.28 74.89 37.73 73.18 32.13 Z" />
</g>
<g id="#363337ff">
<path fill="#363337" opacity="1.00" d=" M 107.07 53.14 C 109.13 46.11 110.98 38.99 113.39 32.06 C 117.69 32.35 122.01 32.27 126.31 32.16 C 125.51 34.69 124.67 37.22 123.87 39.75 C 122.19 45.13 120.48 50.49 118.77 55.85 C 118.35 55.69 117.51 55.38 117.09 55.23 C 115.26 61.10 113.17 66.89 111.48 72.80 C 111.00 69.34 109.13 65.65 105.22 65.41 C 106.02 61.43 109.48 57.05 107.07 53.14 Z" />
</g>
<g id="#ffff26ff">
<path fill="#ffff26" opacity="1.00" d=" M 123.87 39.75 C 124.99 42.55 126.33 45.34 128.62 47.39 C 133.21 51.58 136.20 57.12 140.55 61.52 C 143.15 64.25 147.09 64.81 150.50 66.01 C 142.61 65.62 134.72 65.87 126.83 65.80 C 126.71 66.04 126.49 66.51 126.38 66.75 C 125.18 67.22 123.88 68.27 122.54 67.60 C 120.69 65.54 119.21 63.15 117.00 61.43 C 117.59 59.57 118.16 57.70 118.77 55.85 C 120.48 50.49 122.19 45.13 123.87 39.75 Z" />
</g>
<g id="#272530ff">
<path fill="#272530" opacity="1.00" d=" M 107.07 53.14 C 109.48 57.05 106.02 61.43 105.22 65.41 C 104.00 69.20 103.28 73.16 101.64 76.82 L 100.36 76.83 C 102.19 68.83 104.84 61.04 107.07 53.14 Z" />
</g>
<g id="#fee200ff">
<path fill="#fee200" opacity="1.00" d=" M 29.80 62.83 C 31.34 60.40 32.73 57.87 34.38 55.50 C 36.22 57.84 38.44 59.92 39.98 62.48 C 40.16 63.58 39.39 64.64 39.18 65.71 C 39.02 88.10 39.17 110.50 39.09 132.90 C 46.43 132.85 53.77 132.94 61.11 132.86 C 69.26 132.76 76.60 126.62 78.76 118.87 C 80.83 112.08 78.81 104.56 74.10 99.36 C 76.57 96.46 78.28 93.00 79.10 89.28 C 79.62 89.39 80.64 89.61 81.16 89.72 C 81.85 85.43 80.97 81.15 80.35 76.91 C 82.92 79.24 85.47 81.62 87.68 84.29 C 90.13 89.15 91.12 94.59 93.04 99.67 C 93.47 99.52 94.33 99.22 94.76 99.07 C 94.85 99.37 95.03 99.97 95.12 100.27 C 95.25 100.71 95.51 101.57 95.64 102.01 C 98.50 102.32 101.37 102.46 104.24 102.63 C 107.04 105.86 109.71 109.21 112.43 112.52 C 115.56 116.41 119.67 119.48 122.22 123.84 C 124.03 126.49 124.49 129.72 125.31 132.75 L 126.39 132.87 C 129.35 132.92 132.31 132.83 135.27 132.86 C 132.02 133.26 128.78 133.84 125.61 134.73 C 129.79 135.57 134.05 135.32 138.28 135.58 C 141.49 140.61 146.09 144.50 149.77 149.16 C 151.66 151.54 154.13 153.35 156.61 155.08 C 155.25 156.78 153.51 158.43 153.39 160.75 C 147.19 166.32 140.02 170.78 132.41 174.18 C 108.90 184.54 80.43 182.85 58.43 169.48 C 39.36 158.16 25.31 138.68 20.79 116.93 C 17.01 99.42 19.27 80.63 27.24 64.57 C 28.42 64.60 29.25 63.75 29.80 62.83 M 84.43 134.55 C 80.22 135.59 76.76 139.58 76.80 143.99 C 76.78 148.99 76.80 153.98 76.79 158.98 C 76.64 162.69 78.93 166.18 82.16 167.89 C 86.61 170.34 92.68 168.67 95.31 164.34 C 97.21 161.60 96.79 158.16 96.81 155.02 C 96.73 151.00 96.94 146.97 96.73 142.94 C 96.16 137.22 89.96 133.08 84.43 134.55 M 102.75 145.01 C 101.84 152.01 109.51 158.43 116.19 155.90 C 116.26 158.15 116.66 161.50 113.89 162.30 C 111.28 163.20 109.23 160.48 109.68 158.03 C 107.42 157.38 105.03 157.74 102.71 157.68 C 101.50 165.82 111.73 172.21 118.46 167.45 C 123.83 164.17 122.78 157.30 122.78 151.97 C 122.65 146.57 124.05 139.68 118.78 136.14 C 112.39 131.16 101.78 136.84 102.75 145.01 Z" />
</g>
<g id="#fff313ff">
<path fill="#fff313" opacity="1.00" d=" M 117.00 61.43 C 119.21 63.15 120.69 65.54 122.54 67.60 C 123.88 68.27 125.18 67.22 126.38 66.75 C 126.60 88.78 126.39 110.83 126.39 132.87 L 125.31 132.75 C 124.49 129.72 124.03 126.49 122.22 123.84 C 119.67 119.48 115.56 116.41 112.43 112.52 C 109.71 109.21 107.04 105.86 104.24 102.63 C 101.37 102.46 98.50 102.32 95.64 102.01 C 95.51 101.57 95.25 100.71 95.12 100.27 C 98.33 100.35 101.55 100.30 104.75 100.20 C 105.49 97.57 106.27 94.97 107.11 92.37 C 110.53 82.10 113.65 71.73 117.00 61.43 Z" />
</g>
<g id="#231f21ff">
<path fill="#231f21" opacity="1.00" d=" M 39.18 65.71 C 45.79 65.66 52.41 65.74 59.03 65.69 C 66.28 65.52 73.58 69.57 77.02 76.01 C 79.25 80.03 79.73 84.78 79.10 89.28 C 78.28 93.00 76.57 96.46 74.10 99.36 C 78.81 104.56 80.83 112.08 78.76 118.87 C 76.60 126.62 69.26 132.76 61.11 132.86 C 53.77 132.94 46.43 132.85 39.09 132.90 C 39.17 110.50 39.02 88.10 39.18 65.71 M 50.16 77.18 C 49.40 82.44 49.48 87.80 49.87 93.08 C 51.05 95.95 54.53 95.26 57.00 95.40 C 59.40 95.25 62.30 95.90 63.94 93.62 L 62.64 93.32 C 68.30 90.99 68.97 83.02 64.83 78.96 L 66.35 79.29 C 65.61 78.07 64.65 76.68 63.01 76.88 C 58.73 76.67 54.41 76.59 50.16 77.18 M 50.35 104.44 C 49.47 109.92 49.74 115.54 50.02 121.07 L 51.36 121.09 C 54.59 121.05 57.82 121.19 61.04 121.06 C 64.22 120.72 66.85 118.02 67.40 114.92 C 68.06 111.55 66.34 108.19 63.88 105.97 L 65.56 106.53 C 64.77 105.30 63.64 103.86 62.00 103.98 C 58.11 103.77 54.19 103.73 50.35 104.44 Z" />
</g>
<g id="#353135ff">
<path fill="#353135" opacity="1.00" d=" M 150.50 66.01 C 154.93 67.15 159.31 69.23 162.23 72.87 C 165.82 77.16 167.21 82.99 166.52 88.49 C 165.86 92.51 164.09 96.28 161.44 99.38 C 164.43 102.89 166.67 107.20 166.85 111.89 C 167.40 118.82 163.99 125.76 158.32 129.75 C 157.75 128.12 155.68 128.46 154.42 127.68 C 152.79 126.43 151.68 124.68 150.45 123.08 C 151.40 122.08 152.27 121.01 153.20 119.99 L 151.97 119.87 C 156.69 115.87 155.34 107.87 149.87 105.25 L 151.27 104.51 C 147.35 103.31 143.12 103.39 139.11 104.08 C 137.21 104.45 136.99 106.44 136.81 108.02 C 133.43 105.40 130.79 102.01 128.31 98.56 C 128.44 88.06 127.98 77.56 128.15 67.05 C 135.59 66.40 143.13 67.46 150.50 66.01 M 138.85 78.18 C 138.84 83.20 138.86 88.21 138.86 93.23 C 142.53 93.18 146.21 93.38 149.88 93.19 C 156.24 91.32 156.72 80.91 150.67 78.32 C 146.75 77.92 142.79 78.29 138.85 78.18 Z" />
</g>
<g id="#181623ff">
<path fill="#181623" opacity="1.00" d=" M 50.16 77.18 C 54.41 76.59 58.73 76.67 63.01 76.88 C 64.65 76.68 65.61 78.07 66.35 79.29 L 64.83 78.96 C 60.51 77.49 55.86 78.57 51.40 78.16 C 51.37 83.20 51.41 88.24 51.39 93.28 C 55.14 93.27 58.89 93.21 62.64 93.32 L 63.94 93.62 C 62.30 95.90 59.40 95.25 57.00 95.40 C 54.53 95.26 51.05 95.95 49.87 93.08 C 49.48 87.80 49.40 82.44 50.16 77.18 Z" />
</g>
<g id="#ffe504ff">
<path fill="#ffe504" opacity="1.00" d=" M 51.40 78.16 C 55.86 78.57 60.51 77.49 64.83 78.96 C 68.97 83.02 68.30 90.99 62.64 93.32 C 58.89 93.21 55.14 93.27 51.39 93.28 C 51.41 88.24 51.37 83.20 51.40 78.16 Z" />
<path fill="#ffe504" opacity="1.00" d=" M 112.37 141.32 C 117.19 140.46 117.86 149.30 113.04 149.56 C 108.88 149.26 108.48 142.38 112.37 141.32 Z" />
</g>
<g id="#ffff23ff">
<path fill="#ffff23" opacity="1.00" d=" M 138.85 78.18 C 142.79 78.29 146.75 77.92 150.67 78.32 C 156.72 80.91 156.24 91.32 149.88 93.19 C 146.21 93.38 142.53 93.18 138.86 93.23 C 138.86 88.21 138.84 83.20 138.85 78.18 Z" />
<path fill="#ffff23" opacity="1.00" d=" M 161.44 99.38 C 164.09 96.28 165.86 92.51 166.52 88.49 C 168.39 91.82 170.12 95.35 172.96 98.00 C 174.94 99.83 176.60 101.95 177.86 104.33 C 178.31 104.17 179.20 103.87 179.65 103.72 C 179.81 106.21 180.00 108.70 180.11 111.19 C 179.67 114.54 178.89 117.83 178.14 121.12 C 175.74 129.86 171.90 138.21 166.74 145.67 C 166.87 143.08 168.49 140.05 165.98 138.07 C 163.23 135.47 161.75 131.57 158.32 129.75 C 163.99 125.76 167.40 118.82 166.85 111.89 C 166.67 107.20 164.43 102.89 161.44 99.38 Z" />
</g>
<g id="#201e29ff">
<path fill="#201e29" opacity="1.00" d=" M 88.76 80.26 C 90.09 81.01 91.31 82.02 91.67 83.58 C 93.41 88.53 94.77 93.60 96.60 98.51 C 98.83 98.69 101.07 98.73 103.31 98.60 C 104.20 96.34 104.39 93.24 107.11 92.37 C 106.27 94.97 105.49 97.57 104.75 100.20 C 101.55 100.30 98.33 100.35 95.12 100.27 C 95.03 99.97 94.85 99.37 94.76 99.07 C 92.82 92.78 90.72 86.54 88.76 80.26 Z" />
</g>
<g id="#ffff2bff">
<path fill="#ffff2b" opacity="1.00" d=" M 189.30 89.09 C 190.97 103.89 189.28 119.14 183.72 133.00 C 182.59 131.84 181.48 130.67 180.36 129.52 C 184.83 117.63 186.23 104.71 185.12 92.09 C 186.23 93.05 187.35 94.00 188.48 94.96 C 188.78 93.01 189.10 91.05 189.30 89.09 Z" />
</g>
<g id="#2d292cff">
<path fill="#2d292c" opacity="1.00" d=" M 128.31 98.56 C 130.79 102.01 133.43 105.40 136.81 108.02 C 136.97 112.27 136.87 116.53 137.14 120.79 C 137.56 120.85 138.40 120.98 138.82 121.05 C 143.20 120.93 147.90 121.98 151.97 119.87 L 153.20 119.99 C 152.27 121.01 151.40 122.08 150.45 123.08 C 151.68 124.68 152.79 126.43 154.42 127.68 C 155.68 128.46 157.75 128.12 158.32 129.75 C 157.89 129.97 157.02 130.42 156.59 130.64 C 155.28 130.51 153.98 130.39 152.67 130.48 C 144.60 131.29 136.47 130.86 128.38 130.62 C 128.25 119.94 128.11 109.25 128.31 98.56 Z" />
</g>
<g id="#070624ff">
<path fill="#070624" opacity="1.00" d=" M 50.35 104.44 C 54.19 103.73 58.11 103.77 62.00 103.98 C 63.64 103.86 64.77 105.30 65.56 106.53 L 63.88 105.97 C 59.87 104.56 55.53 105.51 51.38 105.17 C 51.34 110.47 51.38 115.78 51.36 121.09 L 50.02 121.07 C 49.74 115.54 49.47 109.92 50.35 104.44 Z" />
</g>
<g id="#fde100ff">
<path fill="#fde100" opacity="1.00" d=" M 51.38 105.17 C 55.53 105.51 59.87 104.56 63.88 105.97 C 66.34 108.19 68.06 111.55 67.40 114.92 C 66.85 118.02 64.22 120.72 61.04 121.06 C 57.82 121.19 54.59 121.05 51.36 121.09 C 51.38 115.78 51.34 110.47 51.38 105.17 Z" />
</g>
<g id="#fff719ff">
<path fill="#fff719" opacity="1.00" d=" M 138.80 105.20 C 142.49 105.16 146.18 105.20 149.87 105.25 C 155.34 107.87 156.69 115.87 151.97 119.87 C 147.90 121.98 143.20 120.93 138.82 121.05 C 138.81 115.76 138.80 110.48 138.80 105.20 Z" />
</g>
<g id="#282425ff">
<path fill="#282425" opacity="1.00" d=" M 178.14 121.12 C 180.15 123.61 178.07 126.55 177.31 129.11 C 173.06 140.77 166.09 151.33 157.31 160.07 C 163.62 155.49 168.13 148.93 172.26 142.43 C 175.37 137.64 177.08 132.15 179.87 127.19 C 179.92 127.97 180.02 129.51 180.07 130.29 C 175.13 143.53 166.77 155.39 156.20 164.74 C 149.38 170.43 141.89 175.40 133.65 178.80 C 132.36 178.20 130.92 177.78 129.55 178.43 C 125.71 179.69 121.90 181.17 117.85 181.60 C 122.41 178.95 127.91 178.64 132.44 175.93 C 132.43 175.49 132.42 174.62 132.41 174.18 C 140.02 170.78 147.19 166.32 153.39 160.75 C 158.45 156.31 162.98 151.26 166.74 145.67 C 171.90 138.21 175.74 129.86 178.14 121.12 Z" />
</g>
<g id="#fff113ff">
<path fill="#fff113" opacity="1.00" d=" M 156.59 130.64 C 157.02 130.42 157.89 129.97 158.32 129.75 C 161.75 131.57 163.23 135.47 165.98 138.07 C 168.49 140.05 166.87 143.08 166.74 145.67 C 162.98 151.26 158.45 156.31 153.39 160.75 C 153.51 158.43 155.25 156.78 156.61 155.08 C 154.13 153.35 151.66 151.54 149.77 149.16 C 146.09 144.50 141.49 140.61 138.28 135.58 C 134.05 135.32 129.79 135.57 125.61 134.73 C 128.78 133.84 132.02 133.26 135.27 132.86 C 142.37 132.38 150.03 134.19 156.59 130.64 Z" />
</g>
<g id="#fff618ff">
<path fill="#fff618" opacity="1.00" d=" M 180.07 130.29 L 180.36 129.52 C 181.48 130.67 182.59 131.84 183.72 133.00 C 179.31 144.05 172.81 154.30 164.45 162.79 C 163.99 162.48 163.08 161.88 162.62 161.57 C 160.77 163.15 158.80 164.78 156.20 164.74 C 166.77 155.39 175.13 143.53 180.07 130.29 Z" />
</g>
<g id="#242022ff">
<path fill="#242022" opacity="1.00" d=" M 102.75 145.01 C 101.78 136.84 112.39 131.16 118.78 136.14 C 124.05 139.68 122.65 146.57 122.78 151.97 C 122.78 157.30 123.83 164.17 118.46 167.45 C 111.73 172.21 101.50 165.82 102.71 157.68 C 105.03 157.74 107.42 157.38 109.68 158.03 C 109.23 160.48 111.28 163.20 113.89 162.30 C 116.66 161.50 116.26 158.15 116.19 155.90 C 109.51 158.43 101.84 152.01 102.75 145.01 M 112.37 141.32 C 108.48 142.38 108.88 149.26 113.04 149.56 C 117.86 149.30 117.19 140.46 112.37 141.32 Z" />
</g>
<g id="#fee100ff">
<path fill="#fee100" opacity="1.00" d=" M 84.48 142.45 C 86.35 139.98 90.22 142.11 90.05 144.86 C 90.00 149.87 90.27 154.90 89.91 159.90 C 89.30 163.13 84.38 163.26 83.72 160.00 C 83.59 154.63 83.60 149.25 83.70 143.88 C 83.89 143.52 84.28 142.81 84.48 142.45 Z" />
</g>
</svg>
