<?xml version="1.0" encoding="UTF-8" ?>
<!DOCTYPE svg PUBLIC "-//W3C//DTD SVG 1.1//EN" "http://www.w3.org/Graphics/SVG/1.1/DTD/svg11.dtd">
<svg width="200pt" height="200pt" viewBox="0 0 200 200" version="1.1" xmlns="http://www.w3.org/2000/svg">
<g id="#fdfdfdff">
<path fill="#fdfdfd" opacity="1.00" d=" M 86.62 7.84 C 104.75 5.87 123.64 7.62 140.22 15.64 C 164.07 26.91 182.89 48.76 189.75 74.32 C 193.15 85.87 193.15 98.03 192.57 109.95 C 190.83 131.03 181.19 151.30 166.09 166.10 C 151.09 181.39 130.47 191.11 109.08 192.62 C 98.57 193.03 87.89 193.18 77.61 190.59 C 45.42 183.28 18.41 157.02 10.13 125.07 C 6.94 113.66 6.79 101.69 7.50 89.95 C 9.30 68.92 18.92 48.73 33.98 33.96 C 47.97 19.70 66.81 10.36 86.62 7.84 M 83.46 11.60 C 60.78 15.68 40.04 29.00 26.68 47.75 C 9.14 71.94 4.94 105.04 16.10 132.78 C 23.87 152.87 39.16 169.89 58.24 179.86 C 74.28 188.26 92.92 191.79 110.90 189.49 C 131.22 187.10 150.58 177.43 164.72 162.63 C 180.50 146.32 190.10 123.77 189.71 100.98 C 190.09 90.73 188.33 80.50 185.00 70.83 C 176.65 46.14 156.93 25.68 132.63 16.29 C 117.11 10.11 99.87 8.80 83.46 11.60 Z" />
<path fill="#fdfdfd" opacity="1.00" d=" M 88.48 14.73 C 104.09 12.49 120.32 14.80 134.73 21.19 C 153.97 29.65 169.88 45.40 178.51 64.57 C 185.02 78.87 187.43 95.02 185.38 110.60 C 183.11 129.20 174.37 146.90 161.15 160.16 C 148.05 173.46 130.51 182.33 112.00 184.86 C 92.89 187.67 72.87 183.62 56.29 173.72 C 40.77 164.58 28.25 150.41 21.18 133.84 C 14.84 119.22 12.80 102.80 15.20 87.06 C 17.78 69.34 26.21 52.54 38.81 39.82 C 51.99 26.29 69.75 17.28 88.48 14.73 M 88.20 19.32 C 72.82 21.44 58.12 28.16 46.44 38.39 C 33.16 49.90 23.74 65.80 20.16 83.02 C 16.34 100.78 18.72 119.79 26.79 136.06 C 34.55 151.83 47.53 164.98 63.25 172.86 C 79.93 181.34 99.58 183.67 117.82 179.59 C 148.39 173.14 173.71 147.42 179.70 116.76 C 183.58 98.33 180.80 78.59 171.97 61.95 C 164.17 47.12 151.67 34.81 136.70 27.27 C 121.86 19.73 104.67 16.95 88.20 19.32 Z" />
<path fill="#fdfdfd" opacity="1.00" d=" M 87.86 24.78 C 90.22 24.53 92.58 24.28 94.94 24.04 C 98.14 30.45 101.12 36.97 104.43 43.32 C 102.42 43.52 100.42 43.74 98.41 43.96 C 97.80 42.63 97.20 41.30 96.59 39.96 C 94.19 40.26 91.79 40.55 89.39 40.88 C 88.86 42.20 89.07 43.99 88.00 45.01 C 86.29 45.40 84.53 45.54 82.80 45.75 C 84.60 38.79 86.14 31.76 87.86 24.78 M 91.74 28.87 C 91.23 31.46 90.74 34.06 90.17 36.64 C 91.77 36.47 93.37 36.30 94.97 36.14 C 93.83 33.75 92.80 31.30 91.74 28.87 Z" />
<path fill="#fdfdfd" opacity="1.00" d=" M 105.25 23.38 C 107.49 23.75 109.73 24.14 111.97 24.53 C 112.86 27.27 113.71 30.02 114.41 32.82 C 116.00 30.33 117.68 27.90 119.48 25.55 C 121.57 25.94 123.67 26.31 125.77 26.67 C 122.75 30.33 119.53 33.85 116.75 37.71 C 115.55 40.15 115.65 43.02 115.18 45.67 C 113.25 45.35 111.32 45.02 109.39 44.70 C 109.77 42.18 110.42 39.67 110.44 37.11 C 109.02 32.42 106.93 27.97 105.25 23.38 Z" />
<path fill="#fdfdfd" opacity="1.00" d=" M 130.29 28.71 C 134.51 31.02 138.84 33.15 143.02 35.54 C 142.29 36.81 141.56 38.08 140.84 39.36 C 138.35 38.03 135.87 36.69 133.41 35.31 C 132.76 36.31 132.11 37.30 131.48 38.30 C 133.92 39.59 136.38 40.84 138.86 42.03 C 138.12 43.36 137.38 44.70 136.64 46.03 C 134.32 44.78 132.01 43.51 129.72 42.21 C 129.04 43.26 128.37 44.31 127.69 45.36 C 130.39 46.86 133.11 48.30 135.85 49.73 C 135.11 50.99 134.37 52.24 133.63 53.50 C 129.40 51.20 125.13 48.96 120.84 46.76 C 123.98 40.73 127.13 34.72 130.29 28.71 Z" />
<path fill="#fdfdfd" opacity="1.00" d=" M 57.90 35.96 C 61.66 34.08 65.10 31.45 69.15 30.23 C 73.49 29.22 76.83 35.36 73.38 38.39 C 77.71 36.89 82.06 42.51 79.13 46.14 C 76.13 49.61 71.58 51.09 67.82 53.56 C 64.53 47.69 61.36 41.73 57.90 35.96 M 64.38 36.70 C 65.09 37.90 65.79 39.11 66.49 40.32 C 67.86 39.12 70.92 38.50 70.02 36.12 C 68.87 33.43 66.18 36.20 64.38 36.70 M 68.30 43.58 C 69.04 44.88 69.78 46.18 70.51 47.49 C 72.89 46.35 75.71 44.68 74.20 41.60 C 72.07 41.66 70.13 42.55 68.30 43.58 Z" />
<path fill="#fdfdfd" opacity="1.00" d=" M 136.32 55.10 C 141.41 50.63 146.39 46.04 151.20 41.27 C 154.14 44.84 158.09 47.73 160.06 52.00 C 160.98 56.44 155.72 60.14 151.62 58.89 C 150.47 61.96 149.33 65.03 148.19 68.10 C 146.73 66.42 145.26 64.76 143.78 63.11 C 144.80 60.16 147.92 57.16 146.30 53.91 C 144.26 55.74 142.25 57.62 140.22 59.47 C 138.93 58.01 137.63 56.55 136.32 55.10 M 148.88 51.32 C 149.95 52.30 150.99 53.31 152.16 54.18 C 153.44 54.13 154.21 52.88 155.23 52.25 C 154.21 50.94 153.18 49.64 152.15 48.34 C 151.06 49.34 149.97 50.33 148.88 51.32 Z" />
<path fill="#fdfdfd" opacity="1.00" d=" M 90.50 49.71 C 103.52 47.09 117.48 50.05 128.46 57.47 C 140.15 65.25 148.42 78.01 150.54 91.92 C 152.83 105.71 148.95 120.35 140.29 131.30 C 131.83 142.15 118.84 149.33 105.14 150.66 C 88.28 152.53 70.79 145.17 60.24 131.90 C 51.07 120.66 47.17 105.34 49.78 91.08 C 53.06 70.60 70.12 53.39 90.50 49.71 M 88.99 54.17 C 75.51 57.16 63.92 66.63 57.67 78.87 C 60.18 82.76 62.31 86.89 64.89 90.74 C 65.47 83.46 66.03 76.18 66.69 68.91 C 70.23 74.76 73.36 80.85 77.17 86.54 C 77.72 79.32 78.36 72.10 78.80 64.88 C 82.53 70.70 85.70 76.87 89.45 82.68 C 90.04 75.43 90.66 68.19 91.16 60.94 C 94.99 66.67 98.00 72.91 101.80 78.66 C 102.29 71.41 102.91 64.17 103.44 56.93 C 107.34 62.54 110.32 68.75 113.94 74.55 C 114.59 68.22 114.90 61.87 115.61 55.55 C 107.07 52.71 97.77 52.05 88.99 54.17 M 117.94 56.40 C 120.77 61.10 123.50 65.85 126.28 70.58 C 126.52 67.51 126.71 64.44 126.89 61.38 C 123.99 59.57 121.01 57.88 117.94 56.40 M 126.37 71.33 C 125.98 79.20 124.67 87.02 124.91 94.91 L 125.54 94.06 C 128.39 99.67 131.63 105.08 134.97 110.42 C 135.45 103.18 135.98 95.95 136.60 88.73 C 140.37 94.02 143.00 100.02 146.72 105.34 C 147.55 93.93 144.98 82.09 138.17 72.76 C 137.78 78.05 137.53 83.35 136.92 88.62 C 132.79 83.26 130.09 76.97 126.37 71.33 M 114.01 75.19 C 113.62 82.38 112.81 89.53 112.28 96.71 C 108.37 91.16 105.55 84.94 101.71 79.35 C 101.12 86.42 100.68 93.51 99.80 100.55 C 96.11 94.91 93.15 88.81 89.40 83.21 C 88.72 90.36 88.34 97.54 87.51 104.68 C 83.95 98.90 80.81 92.88 77.10 87.20 C 76.42 94.36 76.00 101.55 75.23 108.71 C 71.64 102.86 68.43 96.78 64.75 90.99 C 64.06 97.90 64.02 104.90 62.82 111.76 C 65.92 118.32 69.68 124.55 73.50 130.71 C 74.07 123.52 74.67 116.33 75.24 109.13 C 79.04 114.77 81.93 120.97 85.78 126.57 C 86.39 119.42 86.91 112.27 87.44 105.12 C 91.38 110.67 94.12 116.96 98.09 122.48 C 98.66 115.32 99.32 108.16 99.81 100.99 C 103.57 106.71 106.60 112.87 110.37 118.59 C 110.94 111.39 111.54 104.20 112.13 97.01 C 116.00 102.60 118.76 108.88 122.78 114.37 C 123.01 107.55 123.95 100.77 124.05 93.96 C 124.15 91.80 122.80 90.04 121.76 88.29 C 119.07 83.99 116.73 79.47 114.01 75.19 M 52.81 95.67 C 52.16 106.85 54.99 118.41 61.79 127.41 C 62.15 121.79 63.53 115.92 61.55 110.46 C 58.76 105.46 55.93 100.47 52.81 95.67 M 134.91 110.93 C 134.44 118.12 133.80 125.30 133.05 132.46 C 129.40 126.73 126.17 120.74 122.70 114.91 C 121.94 122.11 121.53 129.35 120.74 136.55 C 117.07 130.84 114.10 124.70 110.26 119.09 C 109.67 126.23 109.10 133.38 108.51 140.53 C 104.70 134.85 101.76 128.64 97.96 122.95 C 97.42 130.19 96.67 137.41 96.21 144.66 C 92.53 138.84 89.43 132.66 85.62 126.92 C 85.16 132.72 84.81 138.53 84.11 144.31 C 93.38 147.51 103.62 147.87 113.04 145.12 C 125.18 141.71 135.38 133.00 141.46 122.05 C 139.23 118.37 137.16 114.60 134.91 110.93 M 73.26 130.97 C 73.03 133.44 72.88 135.91 72.69 138.39 C 75.18 140.06 77.77 141.58 80.47 142.87 C 78.11 138.88 75.99 134.72 73.26 130.97 Z" />
<path fill="#fdfdfd" opacity="1.00" d=" M 36.06 58.92 C 36.51 53.60 41.69 48.99 47.12 50.73 C 46.47 52.40 45.82 54.07 45.17 55.75 C 44.56 55.56 43.34 55.18 42.73 54.99 C 41.78 55.94 40.95 56.98 40.23 58.10 C 40.57 61.71 44.10 63.80 47.16 64.99 C 49.02 65.90 51.72 65.06 52.19 62.90 C 52.23 61.48 51.49 60.18 51.22 58.81 C 52.23 57.50 53.50 56.43 54.69 55.29 C 55.77 57.36 57.54 59.51 56.95 62.01 C 55.91 66.81 51.23 71.38 46.04 70.29 C 40.86 69.21 35.26 64.76 36.06 58.92 Z" />
<path fill="#fdfdfd" opacity="1.00" d=" M 149.24 70.51 C 155.71 68.32 162.21 66.23 168.71 64.12 C 169.47 66.38 170.23 68.64 171.00 70.90 C 167.20 74.57 163.49 78.34 159.44 81.74 C 163.87 80.00 168.36 78.41 172.91 77.03 C 173.48 78.77 174.05 80.52 174.64 82.26 C 168.13 84.25 161.68 86.43 155.18 88.45 C 154.42 86.24 153.66 84.02 152.89 81.82 C 156.51 78.14 160.16 74.47 164.05 71.07 C 159.76 72.78 155.36 74.18 150.95 75.56 C 150.39 73.87 149.81 72.19 149.24 70.51 Z" />
<path fill="#fdfdfd" opacity="1.00" d=" M 30.35 68.92 C 31.64 69.40 32.93 69.89 34.22 70.37 C 33.28 73.02 32.29 75.64 31.26 78.25 C 32.60 78.79 33.95 79.34 35.30 79.88 C 36.27 77.24 37.23 74.60 38.22 71.97 C 39.49 72.47 40.77 72.96 42.04 73.46 C 41.04 76.01 40.08 78.58 39.09 81.14 C 41.52 82.00 43.94 82.87 46.36 83.75 C 45.73 85.45 45.10 87.15 44.48 88.86 C 38.25 86.50 31.96 84.30 25.71 82.00 C 27.28 77.65 28.80 73.28 30.35 68.92 Z" />
<path fill="#fdfdfd" opacity="1.00" d=" M 27.44 125.47 C 33.36 122.33 39.34 119.32 45.21 116.09 C 46.49 118.56 47.80 121.01 49.11 123.47 C 45.69 126.67 42.29 129.90 38.89 133.13 C 43.40 131.95 48.00 131.21 52.56 130.32 C 53.87 132.70 55.14 135.10 56.37 137.52 C 50.46 140.55 44.49 143.49 38.71 146.76 C 37.86 145.22 37.02 143.68 36.16 142.14 C 40.97 139.47 46.05 137.31 50.75 134.46 C 45.15 135.44 39.62 136.74 34.01 137.70 C 33.33 136.56 32.66 135.43 31.98 134.29 C 36.13 130.15 40.43 126.17 44.60 122.06 C 39.58 124.46 34.80 127.33 29.88 129.92 C 29.07 128.43 28.26 126.95 27.44 125.47 Z" />
<path fill="#fdfdfd" opacity="1.00" d=" M 153.12 120.79 C 153.97 119.22 154.83 117.65 155.69 116.09 C 161.55 119.47 167.51 122.68 173.50 125.84 C 172.32 127.87 171.18 129.92 170.02 131.96 C 164.86 131.86 159.70 131.75 154.55 131.35 C 158.79 133.35 162.93 135.57 167.04 137.84 C 166.13 139.35 165.22 140.86 164.32 142.38 C 158.52 139.06 152.62 135.92 146.73 132.78 C 147.83 130.73 148.94 128.69 150.07 126.65 C 155.34 126.75 160.63 126.84 165.87 127.43 C 161.56 125.33 157.34 123.06 153.12 120.79 Z" />
<path fill="#fdfdfd" opacity="1.00" d=" M 144.32 135.87 C 145.30 136.91 146.28 137.95 147.26 138.99 C 145.07 140.89 142.92 142.84 140.80 144.81 C 141.71 145.67 142.62 146.54 143.54 147.40 C 145.45 145.58 147.37 143.76 149.26 141.91 C 150.24 142.95 151.23 143.99 152.22 145.04 C 150.19 146.82 148.20 148.63 146.22 150.45 C 147.11 151.42 147.98 152.40 148.94 153.31 C 151.25 151.51 153.28 149.38 155.39 147.36 C 156.37 148.38 157.34 149.39 158.31 150.42 C 154.77 153.58 151.27 156.80 147.91 160.16 C 143.23 155.30 138.77 150.22 134.08 145.37 C 137.57 142.29 140.98 139.11 144.32 135.87 Z" />
<path fill="#fdfdfd" opacity="1.00" d=" M 50.19 151.16 C 52.78 147.22 55.92 143.67 58.75 139.90 C 60.17 141.02 61.61 142.12 63.05 143.21 C 60.17 146.99 56.96 150.55 54.44 154.59 C 52.66 156.99 57.14 160.56 59.16 158.26 C 62.51 154.91 65.05 150.86 68.06 147.21 C 69.44 148.26 70.82 149.32 72.21 150.37 C 69.30 154.06 66.60 157.93 63.43 161.41 C 57.71 167.75 45.40 158.28 50.19 151.16 Z" />
<path fill="#fdfdfd" opacity="1.00" d=" M 64.33 144.19 C 65.24 144.87 66.14 145.56 67.05 146.26 C 65.35 147.40 63.66 148.56 61.95 149.68 C 62.75 147.85 63.54 146.02 64.33 144.19 Z" />
<path fill="#fdfdfd" opacity="1.00" d=" M 125.76 149.87 C 127.37 149.00 128.98 148.12 130.59 147.25 C 133.84 153.10 136.92 159.04 140.15 164.91 C 138.52 165.76 136.89 166.62 135.27 167.48 C 133.89 164.98 132.53 162.48 131.16 159.98 C 129.23 161.06 127.28 162.11 125.33 163.16 C 126.65 165.65 128.00 168.13 129.34 170.62 C 127.71 171.47 126.08 172.32 124.45 173.17 C 121.36 167.31 118.30 161.42 114.97 155.69 C 116.60 154.80 118.23 153.92 119.87 153.04 C 121.08 155.25 122.30 157.47 123.53 159.68 C 125.50 158.57 127.47 157.47 129.43 156.35 C 128.16 154.22 126.94 152.05 125.76 149.87 Z" />
<path fill="#fdfdfd" opacity="1.00" d=" M 76.32 152.12 C 78.47 152.84 80.62 153.54 82.78 154.24 C 83.63 159.40 84.54 164.56 84.99 169.77 C 86.52 165.27 87.79 160.69 89.25 156.16 C 90.86 156.71 92.48 157.25 94.10 157.79 C 91.93 164.05 90.03 170.40 88.05 176.73 C 85.87 176.04 83.69 175.35 81.51 174.65 C 80.62 169.64 79.88 164.60 79.19 159.57 C 77.72 163.90 76.55 168.34 75.09 172.68 C 73.46 172.16 71.83 171.64 70.20 171.13 C 72.41 164.85 74.25 158.45 76.32 152.12 Z" />
<path fill="#fdfdfd" opacity="1.00" d=" M 100.92 157.89 C 104.99 154.96 111.05 155.83 113.55 160.38 C 112.07 161.06 110.60 161.74 109.13 162.41 C 107.79 161.46 106.34 159.27 104.51 160.55 C 101.61 161.92 102.11 165.70 102.85 168.24 C 103.48 170.52 105.02 173.69 107.90 173.07 C 109.70 172.53 110.05 170.51 110.81 169.06 C 112.47 169.05 114.14 169.05 115.81 169.06 C 115.72 176.72 105.23 179.75 100.18 174.80 C 95.79 170.35 94.96 161.42 100.92 157.89 Z" />
</g>
<g id="#3a76cbff">
<path fill="#3a76cb" opacity="1.00" d=" M 83.46 11.60 C 99.87 8.80 117.11 10.11 132.63 16.29 C 156.93 25.68 176.65 46.14 185.00 70.83 C 188.33 80.50 190.09 90.73 189.71 100.98 C 190.10 123.77 180.50 146.32 164.72 162.63 C 150.58 177.43 131.22 187.10 110.90 189.49 C 92.92 191.79 74.28 188.26 58.24 179.86 C 39.16 169.89 23.87 152.87 16.10 132.78 C 4.94 105.04 9.14 71.94 26.68 47.75 C 40.04 29.00 60.78 15.68 83.46 11.60 M 88.48 14.73 C 69.75 17.28 51.99 26.29 38.81 39.82 C 26.21 52.54 17.78 69.34 15.20 87.06 C 12.80 102.80 14.84 119.22 21.18 133.84 C 28.25 150.41 40.77 164.58 56.29 173.72 C 72.87 183.62 92.89 187.67 112.00 184.86 C 130.51 182.33 148.05 173.46 161.15 160.16 C 174.37 146.90 183.11 129.20 185.38 110.60 C 187.43 95.02 185.02 78.87 178.51 64.57 C 169.88 45.40 153.97 29.65 134.73 21.19 C 120.32 14.80 104.09 12.49 88.48 14.73 Z" />
<path fill="#3a76cb" opacity="1.00" d=" M 88.99 54.17 C 97.77 52.05 107.07 52.71 115.61 55.55 C 114.90 61.87 114.59 68.22 113.94 74.55 C 110.32 68.75 107.34 62.54 103.44 56.93 C 102.91 64.17 102.29 71.41 101.80 78.66 C 98.00 72.91 94.99 66.67 91.16 60.94 C 90.66 68.19 90.04 75.43 89.45 82.68 C 85.70 76.87 82.53 70.70 78.80 64.88 C 78.36 72.10 77.72 79.32 77.17 86.54 C 73.36 80.85 70.23 74.76 66.69 68.91 C 66.03 76.18 65.47 83.46 64.89 90.74 C 62.31 86.89 60.18 82.76 57.67 78.87 C 63.92 66.63 75.51 57.16 88.99 54.17 Z" />
<path fill="#3a76cb" opacity="1.00" d=" M 117.94 56.40 C 121.01 57.88 123.99 59.57 126.89 61.38 C 126.71 64.44 126.52 67.51 126.28 70.58 C 123.50 65.85 120.77 61.10 117.94 56.40 Z" />
<path fill="#3a76cb" opacity="1.00" d=" M 126.37 71.33 C 130.09 76.97 132.79 83.26 136.92 88.62 C 137.53 83.35 137.78 78.05 138.17 72.76 C 144.98 82.09 147.55 93.93 146.72 105.34 C 143.00 100.02 140.37 94.02 136.60 88.73 C 135.98 95.95 135.45 103.18 134.97 110.42 C 131.63 105.08 128.39 99.67 125.54 94.06 L 124.91 94.91 C 124.67 87.02 125.98 79.20 126.37 71.33 Z" />
<path fill="#3a76cb" opacity="1.00" d=" M 114.01 75.19 C 116.73 79.47 119.07 83.99 121.76 88.29 C 122.80 90.04 124.15 91.80 124.05 93.96 C 123.95 100.77 123.01 107.55 122.78 114.37 C 118.76 108.88 116.00 102.60 112.13 97.01 C 111.54 104.20 110.94 111.39 110.37 118.59 C 106.60 112.87 103.57 106.71 99.81 100.99 C 99.32 108.16 98.66 115.32 98.09 122.48 C 94.12 116.96 91.38 110.67 87.44 105.12 C 86.91 112.27 86.39 119.42 85.78 126.57 C 81.93 120.97 79.04 114.77 75.24 109.13 C 74.67 116.33 74.07 123.52 73.50 130.71 C 69.68 124.55 65.92 118.32 62.82 111.76 C 64.02 104.90 64.06 97.90 64.75 90.99 C 68.43 96.78 71.64 102.86 75.23 108.71 C 76.00 101.55 76.42 94.36 77.10 87.20 C 80.81 92.88 83.95 98.90 87.51 104.68 C 88.34 97.54 88.72 90.36 89.40 83.21 C 93.15 88.81 96.11 94.91 99.80 100.55 C 100.68 93.51 101.12 86.42 101.71 79.35 C 105.55 84.94 108.37 91.16 112.28 96.71 C 112.81 89.53 113.62 82.38 114.01 75.19 Z" />
<path fill="#3a76cb" opacity="1.00" d=" M 52.81 95.67 C 55.93 100.47 58.76 105.46 61.55 110.46 C 63.53 115.92 62.15 121.79 61.79 127.41 C 54.99 118.41 52.16 106.85 52.81 95.67 Z" />
<path fill="#3a76cb" opacity="1.00" d=" M 134.91 110.93 C 137.16 114.60 139.23 118.37 141.46 122.05 C 135.38 133.00 125.18 141.71 113.04 145.12 C 103.62 147.87 93.38 147.51 84.11 144.31 C 84.81 138.53 85.16 132.72 85.62 126.92 C 89.43 132.66 92.53 138.84 96.21 144.66 C 96.67 137.41 97.42 130.19 97.96 122.95 C 101.76 128.64 104.70 134.85 108.51 140.53 C 109.10 133.38 109.67 126.23 110.26 119.09 C 114.10 124.70 117.07 130.84 120.74 136.55 C 121.53 129.35 121.94 122.11 122.70 114.91 C 126.17 120.74 129.40 126.73 133.05 132.46 C 133.80 125.30 134.44 118.12 134.91 110.93 Z" />
<path fill="#3a76cb" opacity="1.00" d=" M 73.26 130.97 C 75.99 134.72 78.11 138.88 80.47 142.87 C 77.77 141.58 75.18 140.06 72.69 138.39 C 72.88 135.91 73.03 133.44 73.26 130.97 Z" />
</g>
<g id="#f6235bff">
<path fill="#f6235b" opacity="1.00" d=" M 88.20 19.32 C 104.67 16.95 121.86 19.73 136.70 27.27 C 151.67 34.81 164.17 47.12 171.97 61.95 C 180.80 78.59 183.58 98.33 179.70 116.76 C 173.71 147.42 148.39 173.14 117.82 179.59 C 99.58 183.67 79.93 181.34 63.25 172.86 C 47.53 164.98 34.55 151.83 26.79 136.06 C 18.72 119.79 16.34 100.78 20.16 83.02 C 23.74 65.80 33.16 49.90 46.44 38.39 C 58.12 28.16 72.82 21.44 88.20 19.32 M 87.86 24.78 C 86.14 31.76 84.60 38.79 82.80 45.75 C 84.53 45.54 86.29 45.40 88.00 45.01 C 89.07 43.99 88.86 42.20 89.39 40.88 C 91.79 40.55 94.19 40.26 96.59 39.96 C 97.20 41.30 97.80 42.63 98.41 43.96 C 100.42 43.74 102.42 43.52 104.43 43.32 C 101.12 36.97 98.14 30.45 94.94 24.04 C 92.58 24.28 90.22 24.53 87.86 24.78 M 105.25 23.38 C 106.93 27.97 109.02 32.42 110.44 37.11 C 110.42 39.67 109.77 42.18 109.39 44.70 C 111.32 45.02 113.25 45.35 115.18 45.67 C 115.65 43.02 115.55 40.15 116.75 37.71 C 119.53 33.85 122.75 30.33 125.77 26.67 C 123.67 26.31 121.57 25.94 119.48 25.55 C 117.68 27.90 116.00 30.33 114.41 32.82 C 113.71 30.02 112.86 27.27 111.97 24.53 C 109.73 24.14 107.49 23.75 105.25 23.38 M 130.29 28.71 C 127.13 34.72 123.98 40.73 120.84 46.76 C 125.13 48.96 129.40 51.20 133.63 53.50 C 134.37 52.24 135.11 50.99 135.85 49.73 C 133.11 48.30 130.39 46.86 127.69 45.36 C 128.37 44.31 129.04 43.26 129.72 42.21 C 132.01 43.51 134.32 44.78 136.64 46.03 C 137.38 44.70 138.12 43.36 138.86 42.03 C 136.38 40.84 133.92 39.59 131.48 38.30 C 132.11 37.30 132.76 36.31 133.41 35.31 C 135.87 36.69 138.35 38.03 140.84 39.36 C 141.56 38.08 142.29 36.81 143.02 35.54 C 138.84 33.15 134.51 31.02 130.29 28.71 M 57.90 35.96 C 61.36 41.73 64.53 47.69 67.82 53.56 C 71.58 51.09 76.13 49.61 79.13 46.14 C 82.06 42.51 77.71 36.89 73.38 38.39 C 76.83 35.36 73.49 29.22 69.15 30.23 C 65.10 31.45 61.66 34.08 57.90 35.96 M 136.32 55.10 C 137.63 56.55 138.93 58.01 140.22 59.47 C 142.25 57.62 144.26 55.74 146.30 53.91 C 147.92 57.16 144.80 60.16 143.78 63.11 C 145.26 64.76 146.73 66.42 148.19 68.10 C 149.33 65.03 150.47 61.96 151.62 58.89 C 155.72 60.14 160.98 56.44 160.06 52.00 C 158.09 47.73 154.14 44.84 151.20 41.27 C 146.39 46.04 141.41 50.63 136.32 55.10 M 90.50 49.71 C 70.12 53.39 53.06 70.60 49.78 91.08 C 47.17 105.34 51.07 120.66 60.24 131.90 C 70.79 145.17 88.28 152.53 105.14 150.66 C 118.84 149.33 131.83 142.15 140.29 131.30 C 148.95 120.35 152.83 105.71 150.54 91.92 C 148.42 78.01 140.15 65.25 128.46 57.47 C 117.48 50.05 103.52 47.09 90.50 49.71 M 36.06 58.92 C 35.26 64.76 40.86 69.21 46.04 70.29 C 51.23 71.38 55.91 66.81 56.95 62.01 C 57.54 59.51 55.77 57.36 54.69 55.29 C 53.50 56.43 52.23 57.50 51.22 58.81 C 51.49 60.18 52.23 61.48 52.19 62.90 C 51.72 65.06 49.02 65.90 47.16 64.99 C 44.10 63.80 40.57 61.71 40.23 58.10 C 40.95 56.98 41.78 55.94 42.73 54.99 C 43.34 55.18 44.56 55.56 45.17 55.75 C 45.82 54.07 46.47 52.40 47.12 50.73 C 41.69 48.99 36.51 53.60 36.06 58.92 M 149.24 70.51 C 149.81 72.19 150.39 73.87 150.95 75.56 C 155.36 74.18 159.76 72.78 164.05 71.07 C 160.16 74.47 156.51 78.14 152.89 81.82 C 153.66 84.02 154.42 86.24 155.18 88.45 C 161.68 86.43 168.13 84.25 174.64 82.26 C 174.05 80.52 173.48 78.77 172.91 77.03 C 168.36 78.41 163.87 80.00 159.44 81.74 C 163.49 78.34 167.20 74.57 171.00 70.90 C 170.23 68.64 169.47 66.38 168.71 64.12 C 162.21 66.23 155.71 68.32 149.24 70.51 M 30.35 68.92 C 28.80 73.28 27.28 77.65 25.71 82.00 C 31.96 84.30 38.25 86.50 44.48 88.86 C 45.10 87.15 45.73 85.45 46.36 83.75 C 43.94 82.87 41.52 82.00 39.09 81.14 C 40.08 78.58 41.04 76.01 42.04 73.46 C 40.77 72.96 39.49 72.47 38.22 71.97 C 37.23 74.60 36.27 77.24 35.30 79.88 C 33.95 79.34 32.60 78.79 31.26 78.25 C 32.29 75.64 33.28 73.02 34.22 70.37 C 32.93 69.89 31.64 69.40 30.35 68.92 M 27.44 125.47 C 28.26 126.95 29.07 128.43 29.88 129.92 C 34.80 127.33 39.58 124.46 44.60 122.06 C 40.43 126.17 36.13 130.15 31.98 134.29 C 32.66 135.43 33.33 136.56 34.01 137.70 C 39.62 136.74 45.15 135.44 50.75 134.46 C 46.05 137.31 40.97 139.47 36.16 142.14 C 37.02 143.68 37.86 145.22 38.71 146.76 C 44.49 143.49 50.46 140.55 56.37 137.52 C 55.14 135.10 53.87 132.70 52.56 130.32 C 48.00 131.21 43.40 131.95 38.89 133.13 C 42.29 129.90 45.69 126.67 49.11 123.47 C 47.80 121.01 46.49 118.56 45.21 116.09 C 39.34 119.32 33.36 122.33 27.44 125.47 M 153.12 120.79 C 157.34 123.06 161.56 125.33 165.87 127.43 C 160.63 126.84 155.34 126.75 150.07 126.65 C 148.94 128.69 147.83 130.73 146.73 132.78 C 152.62 135.92 158.52 139.06 164.32 142.38 C 165.22 140.86 166.13 139.35 167.04 137.84 C 162.93 135.57 158.79 133.35 154.55 131.35 C 159.70 131.75 164.86 131.86 170.02 131.96 C 171.18 129.92 172.32 127.87 173.50 125.84 C 167.51 122.68 161.55 119.47 155.69 116.09 C 154.83 117.65 153.97 119.22 153.12 120.79 M 144.32 135.87 C 140.98 139.11 137.57 142.29 134.08 145.37 C 138.77 150.22 143.23 155.30 147.91 160.16 C 151.27 156.80 154.77 153.58 158.31 150.42 C 157.34 149.39 156.37 148.38 155.39 147.36 C 153.28 149.38 151.25 151.51 148.94 153.31 C 147.98 152.40 147.11 151.42 146.22 150.45 C 148.20 148.63 150.19 146.82 152.22 145.04 C 151.23 143.99 150.24 142.95 149.26 141.91 C 147.37 143.76 145.45 145.58 143.54 147.40 C 142.62 146.54 141.71 145.67 140.80 144.81 C 142.92 142.84 145.07 140.89 147.26 138.99 C 146.28 137.95 145.30 136.91 144.32 135.87 M 50.19 151.16 C 45.40 158.28 57.71 167.75 63.43 161.41 C 66.60 157.93 69.30 154.06 72.21 150.37 C 70.82 149.32 69.44 148.26 68.06 147.21 C 65.05 150.86 62.51 154.91 59.16 158.26 C 57.14 160.56 52.66 156.99 54.44 154.59 C 56.96 150.55 60.17 146.99 63.05 143.21 C 61.61 142.12 60.17 141.02 58.75 139.90 C 55.92 143.67 52.78 147.22 50.19 151.16 M 64.33 144.19 C 63.54 146.02 62.75 147.85 61.95 149.68 C 63.66 148.56 65.35 147.40 67.05 146.26 C 66.14 145.56 65.24 144.87 64.33 144.19 M 125.76 149.87 C 126.94 152.05 128.16 154.22 129.43 156.35 C 127.47 157.47 125.50 158.57 123.53 159.68 C 122.30 157.47 121.08 155.25 119.87 153.04 C 118.23 153.92 116.60 154.80 114.97 155.69 C 118.30 161.42 121.36 167.31 124.45 173.17 C 126.08 172.32 127.71 171.47 129.34 170.62 C 128.00 168.13 126.65 165.65 125.33 163.16 C 127.28 162.11 129.23 161.06 131.16 159.98 C 132.53 162.48 133.89 164.98 135.27 167.48 C 136.89 166.62 138.52 165.76 140.15 164.91 C 136.92 159.04 133.84 153.10 130.59 147.25 C 128.98 148.12 127.37 149.00 125.76 149.87 M 76.32 152.12 C 74.25 158.45 72.41 164.85 70.20 171.13 C 71.83 171.64 73.46 172.16 75.09 172.68 C 76.55 168.34 77.72 163.90 79.19 159.57 C 79.88 164.60 80.62 169.64 81.51 174.65 C 83.69 175.35 85.87 176.04 88.05 176.73 C 90.03 170.40 91.93 164.05 94.10 157.79 C 92.48 157.25 90.86 156.71 89.25 156.16 C 87.79 160.69 86.52 165.27 84.99 169.77 C 84.54 164.56 83.63 159.40 82.78 154.24 C 80.62 153.54 78.47 152.84 76.32 152.12 M 100.92 157.89 C 94.96 161.42 95.79 170.35 100.18 174.80 C 105.23 179.75 115.72 176.72 115.81 169.06 C 114.14 169.05 112.47 169.05 110.81 169.06 C 110.05 170.51 109.70 172.53 107.90 173.07 C 105.02 173.69 103.48 170.52 102.85 168.24 C 102.11 165.70 101.61 161.92 104.51 160.55 C 106.34 159.27 107.79 161.46 109.13 162.41 C 110.60 161.74 112.07 161.06 113.55 160.38 C 111.05 155.83 104.99 154.96 100.92 157.89 Z" />
<path fill="#f6235b" opacity="1.00" d=" M 91.74 28.87 C 92.80 31.30 93.83 33.75 94.97 36.14 C 93.37 36.30 91.77 36.47 90.17 36.64 C 90.74 34.06 91.23 31.46 91.74 28.87 Z" />
<path fill="#f6235b" opacity="1.00" d=" M 64.38 36.70 C 66.18 36.20 68.87 33.43 70.02 36.12 C 70.92 38.50 67.86 39.12 66.49 40.32 C 65.79 39.11 65.09 37.90 64.38 36.70 Z" />
<path fill="#f6235b" opacity="1.00" d=" M 68.30 43.58 C 70.13 42.55 72.07 41.66 74.20 41.60 C 75.71 44.68 72.89 46.35 70.51 47.49 C 69.78 46.18 69.04 44.88 68.30 43.58 Z" />
<path fill="#f6235b" opacity="1.00" d=" M 148.88 51.32 C 149.97 50.33 151.06 49.34 152.15 48.34 C 153.18 49.64 154.21 50.94 155.23 52.25 C 154.21 52.88 153.44 54.13 152.16 54.18 C 150.99 53.31 149.95 52.30 148.88 51.32 Z" />
</g>
</svg>
