<?xml version="1.0" encoding="UTF-8" ?>
<!DOCTYPE svg PUBLIC "-//W3C//DTD SVG 1.1//EN" "http://www.w3.org/Graphics/SVG/1.1/DTD/svg11.dtd">
<svg width="200pt" height="200pt" viewBox="0 0 200 200" version="1.1" xmlns="http://www.w3.org/2000/svg">
<g id="#e3e3e3ff">
<path fill="#e3e3e3" opacity="1.00" d=" M 97.18 7.59 C 99.07 7.57 100.95 7.50 102.84 7.50 C 122.53 37.30 142.51 66.91 162.31 96.63 C 163.40 98.35 162.86 100.63 162.69 102.54 C 142.77 132.50 122.65 162.34 102.76 192.32 C 101.02 192.32 99.28 192.30 97.54 192.35 C 77.36 162.44 57.52 132.29 37.28 102.42 C 37.26 100.77 37.24 99.12 37.22 97.47 C 56.09 69.54 74.69 41.43 93.48 13.45 C 94.78 11.53 96.01 9.58 97.18 7.59 M 83.70 35.42 C 82.77 35.77 82.38 36.96 81.74 37.68 C 67.85 58.46 53.87 79.18 39.96 99.96 C 60.07 129.89 80.19 159.83 100.04 189.94 C 113.98 168.73 128.31 147.76 142.13 126.48 C 148.32 117.81 153.92 108.71 160.00 99.95 C 142.53 73.76 125.01 47.60 107.50 21.43 C 104.99 17.63 102.30 13.95 100.06 9.98 C 95.11 18.78 88.49 26.54 83.70 35.42 Z" />
</g>
<g id="#2a9d62ff">
<path fill="#2a9d62" opacity="1.00" d=" M 83.70 35.42 C 88.49 26.54 95.11 18.78 100.06 9.98 C 102.30 13.95 104.99 17.63 107.50 21.43 C 125.01 47.60 142.53 73.76 160.00 99.95 C 153.92 108.71 148.32 117.81 142.13 126.48 C 141.91 125.96 141.47 124.91 141.25 124.38 C 146.68 116.19 152.13 108.00 157.75 99.93 C 138.45 71.17 119.22 42.37 100.04 13.54 C 95.44 20.82 90.63 27.98 85.78 35.09 L 83.70 35.42 Z" />
<path fill="#2a9d62" opacity="1.00" d=" M 80.22 88.05 C 84.56 93.55 89.84 98.19 94.59 103.32 C 91.22 109.92 88.85 117.05 84.73 123.26 C 81.19 111.87 79.52 99.97 80.22 88.05 Z" />
</g>
<g id="#ffffffff">
<path fill="#ffffff" opacity="1.00" d=" M 85.78 35.09 C 90.63 27.98 95.44 20.82 100.04 13.54 C 119.22 42.37 138.45 71.17 157.75 99.93 C 152.13 108.00 146.68 116.19 141.25 124.38 C 127.49 144.84 113.68 165.26 100.07 185.81 C 81.07 157.08 61.88 128.48 42.67 99.90 C 57.12 78.34 71.49 56.74 85.78 35.09 M 89.27 37.30 L 89.18 37.67 C 74.97 58.28 61.23 79.21 47.19 99.93 C 51.54 106.21 55.74 112.60 59.97 118.97 L 60.22 119.06 C 73.26 139.22 86.95 158.96 100.06 179.07 C 100.58 178.23 101.12 177.40 101.68 176.59 C 111.50 161.71 121.60 146.99 131.22 131.99 C 137.48 123.17 143.44 114.10 149.23 104.97 C 150.53 103.35 151.70 101.65 152.89 99.96 C 135.28 73.63 117.65 47.31 100.06 20.97 C 96.56 26.48 92.73 31.77 89.27 37.30 Z" />
<path fill="#ffffff" opacity="1.00" d=" M 88.02 53.11 C 90.72 50.28 93.94 47.57 97.98 47.07 C 105.52 45.68 112.99 49.48 118.00 54.93 C 125.51 63.10 129.14 74.12 130.26 84.99 C 131.36 93.78 129.87 102.56 128.37 111.19 C 124.69 125.95 119.23 140.22 112.56 153.87 C 108.24 145.52 104.01 137.11 99.93 128.64 C 95.81 136.92 91.56 145.13 87.44 153.41 C 87.21 152.97 86.75 152.08 86.52 151.63 C 79.89 138.72 74.70 125.09 70.81 111.10 C 68.72 100.93 66.48 90.48 67.86 80.06 C 68.66 74.14 71.51 67.79 77.25 65.23 C 82.59 62.55 89.59 67.07 89.77 72.92 C 89.95 75.12 89.20 77.24 88.45 79.27 C 86.51 80.81 84.15 81.68 81.86 82.56 C 81.16 82.52 79.78 82.43 79.08 82.38 C 76.93 98.00 79.18 114.06 84.66 128.79 C 88.97 119.63 93.17 110.42 97.25 101.16 C 98.14 99.31 99.07 97.48 100.08 95.69 C 104.80 106.87 109.99 117.85 114.22 129.24 C 117.14 121.58 119.60 113.65 119.76 105.39 C 120.56 95.78 120.22 85.38 114.95 76.97 C 112.07 72.23 107.38 69.06 102.74 66.22 C 101.13 67.41 99.54 68.61 97.86 69.68 C 93.95 70.06 89.84 68.75 87.65 65.33 C 84.81 61.71 86.27 56.87 88.02 53.11 Z" />
</g>
<g id="#44b87fff">
<path fill="#44b87f" opacity="1.00" d=" M 89.27 37.30 C 92.73 31.77 96.56 26.48 100.06 20.97 C 117.65 47.31 135.28 73.63 152.89 99.96 C 151.70 101.65 150.53 103.35 149.23 104.97 L 149.07 103.20 C 146.32 106.45 143.93 109.97 141.62 113.55 C 140.07 108.79 135.57 106.26 132.66 102.50 C 131.76 96.33 132.71 90.03 132.13 83.81 C 131.67 84.11 130.73 84.70 130.26 84.99 C 129.14 74.12 125.51 63.10 118.00 54.93 C 112.99 49.48 105.52 45.68 97.98 47.07 C 93.94 47.57 90.72 50.28 88.02 53.11 L 88.31 51.20 C 86.78 53.15 85.34 55.17 83.92 57.20 C 83.00 55.62 81.90 54.10 81.34 52.34 C 83.38 47.13 88.29 43.38 89.18 37.67 L 89.27 37.30 Z" />
</g>
<g id="#229559ff">
<path fill="#229559" opacity="1.00" d=" M 81.74 37.68 C 82.38 36.96 82.77 35.77 83.70 35.42 L 85.78 35.09 C 71.49 56.74 57.12 78.34 42.67 99.90 C 61.88 128.48 81.07 157.08 100.07 185.81 C 113.68 165.26 127.49 144.84 141.25 124.38 C 141.47 124.91 141.91 125.96 142.13 126.48 C 128.31 147.76 113.98 168.73 100.04 189.94 C 80.19 159.83 60.07 129.89 39.96 99.96 C 53.87 79.18 67.85 58.46 81.74 37.68 Z" />
<path fill="#229559" opacity="1.00" d=" M 100.08 95.69 L 101.65 95.98 C 106.29 105.16 109.90 114.82 114.34 124.09 C 116.32 118.35 117.96 112.45 117.98 106.34 C 118.13 104.85 118.32 103.37 118.52 101.88 C 118.83 102.76 119.45 104.51 119.76 105.39 C 119.60 113.65 117.14 121.58 114.22 129.24 C 109.99 117.85 104.80 106.87 100.08 95.69 Z" />
<path fill="#229559" opacity="1.00" d=" M 128.37 111.19 C 128.60 113.47 129.03 115.82 128.22 118.05 C 125.06 129.27 121.07 140.27 116.22 150.87 C 121.57 144.23 125.55 136.58 131.18 130.16 L 131.22 131.99 C 121.60 146.99 111.50 161.71 101.68 176.59 C 99.72 174.77 97.85 172.84 96.44 170.55 C 92.88 164.91 88.99 159.49 85.44 153.84 C 85.71 153.29 86.25 152.19 86.52 151.63 C 86.75 152.08 87.21 152.97 87.44 153.41 C 91.56 145.13 95.81 136.92 99.93 128.64 C 104.01 137.11 108.24 145.52 112.56 153.87 C 119.23 140.22 124.69 125.95 128.37 111.19 Z" />
</g>
<g id="#24965bff">
<path fill="#24965b" opacity="1.00" d=" M 47.19 99.93 C 61.23 79.21 74.97 58.28 89.18 37.67 C 88.29 43.38 83.38 47.13 81.34 52.34 C 81.90 54.10 83.00 55.62 83.92 57.20 C 85.34 55.17 86.78 53.15 88.31 51.20 L 88.02 53.11 C 86.27 56.87 84.81 61.71 87.65 65.33 C 89.84 68.75 93.95 70.06 97.86 69.68 C 98.17 70.02 98.79 70.69 99.10 71.03 C 96.44 71.08 93.78 70.90 91.14 70.57 C 91.22 72.46 91.31 74.35 91.40 76.24 C 90.49 77.32 89.53 78.35 88.45 79.27 C 89.20 77.24 89.95 75.12 89.77 72.92 C 89.59 67.07 82.59 62.55 77.25 65.23 C 71.51 67.79 68.66 74.14 67.86 80.06 C 66.48 90.48 68.72 100.93 70.81 111.10 C 69.16 115.51 71.78 119.79 72.95 123.96 C 75.96 133.23 80.05 142.08 83.88 151.02 C 76.25 140.94 70.04 129.85 62.41 119.78 C 61.87 119.60 60.77 119.24 60.22 119.06 L 59.97 118.97 C 55.74 112.60 51.54 106.21 47.19 99.93 Z" />
</g>
<g id="#38ac72ff">
<path fill="#38ac72" opacity="1.00" d=" M 97.86 69.68 C 99.54 68.61 101.13 67.41 102.74 66.22 C 107.38 69.06 112.07 72.23 114.95 76.97 C 120.22 85.38 120.56 95.78 119.76 105.39 C 119.45 104.51 118.83 102.76 118.52 101.88 C 118.32 103.37 118.13 104.85 117.98 106.34 C 111.30 101.62 107.41 94.09 101.39 88.66 C 98.09 84.50 94.08 80.85 91.40 76.24 C 91.31 74.35 91.22 72.46 91.14 70.57 C 93.78 70.90 96.44 71.08 99.10 71.03 C 98.79 70.69 98.17 70.02 97.86 69.68 Z" />
</g>
<g id="#32a56bff">
<path fill="#32a56b" opacity="1.00" d=" M 91.40 76.24 C 94.08 80.85 98.09 84.50 101.39 88.66 C 107.41 94.09 111.30 101.62 117.98 106.34 C 117.96 112.45 116.32 118.35 114.34 124.09 C 109.90 114.82 106.29 105.16 101.65 95.98 L 100.08 95.69 C 99.07 97.48 98.14 99.31 97.25 101.16 L 97.03 99.23 C 96.20 100.58 95.37 101.93 94.59 103.32 C 89.84 98.19 84.56 93.55 80.22 88.05 C 80.28 86.97 80.34 85.90 80.39 84.83 C 81.38 84.17 82.40 83.58 83.46 83.04 C 83.06 82.92 82.26 82.68 81.86 82.56 C 84.15 81.68 86.51 80.81 88.45 79.27 C 89.53 78.35 90.49 77.32 91.40 76.24 Z" />
</g>
<g id="#209556ff">
<path fill="#209556" opacity="1.00" d=" M 79.08 82.38 C 79.78 82.43 81.16 82.52 81.86 82.56 C 82.26 82.68 83.06 82.92 83.46 83.04 C 82.40 83.58 81.38 84.17 80.39 84.83 C 80.34 85.90 80.28 86.97 80.22 88.05 C 79.52 99.97 81.19 111.87 84.73 123.26 C 88.85 117.05 91.22 109.92 94.59 103.32 C 95.37 101.93 96.20 100.58 97.03 99.23 L 97.25 101.16 C 93.17 110.42 88.97 119.63 84.66 128.79 C 79.18 114.06 76.93 98.00 79.08 82.38 Z" />
</g>
<g id="#37aa71ff">
<path fill="#37aa71" opacity="1.00" d=" M 130.26 84.99 C 130.73 84.70 131.67 84.11 132.13 83.81 C 132.71 90.03 131.76 96.33 132.66 102.50 C 135.57 106.26 140.07 108.79 141.62 113.55 C 143.93 109.97 146.32 106.45 149.07 103.20 L 149.23 104.97 C 143.44 114.10 137.48 123.17 131.22 131.99 L 131.18 130.16 C 125.55 136.58 121.57 144.23 116.22 150.87 C 121.07 140.27 125.06 129.27 128.22 118.05 C 129.03 115.82 128.60 113.47 128.37 111.19 C 129.87 102.56 131.36 93.78 130.26 84.99 Z" />
</g>
<g id="#229153ff">
<path fill="#229153" opacity="1.00" d=" M 72.95 123.96 C 71.78 119.79 69.16 115.51 70.81 111.10 C 74.70 125.09 79.89 138.72 86.52 151.63 C 86.25 152.19 85.71 153.29 85.44 153.84 C 88.99 159.49 92.88 164.91 96.44 170.55 C 97.85 172.84 99.72 174.77 101.68 176.59 C 101.12 177.40 100.58 178.23 100.06 179.07 C 86.95 158.96 73.26 139.22 60.22 119.06 C 60.77 119.24 61.87 119.60 62.41 119.78 C 70.04 129.85 76.25 140.94 83.88 151.02 C 80.05 142.08 75.96 133.23 72.95 123.96 Z" />
</g>
</svg>
