<?xml version="1.0" encoding="UTF-8" ?>
<!DOCTYPE svg PUBLIC "-//W3C//DTD SVG 1.1//EN" "http://www.w3.org/Graphics/SVG/1.1/DTD/svg11.dtd">
<svg width="200pt" height="200pt" viewBox="0 0 200 200" version="1.1" xmlns="http://www.w3.org/2000/svg">
<g id="#f9f9f9ff">
<path fill="#f9f9f9" opacity="1.00" d=" M 43.44 29.68 C 46.22 28.95 51.09 27.88 51.73 31.87 C 55.43 32.20 56.57 35.99 59.13 38.08 C 62.73 32.47 70.36 33.15 76.02 34.44 C 89.41 30.39 103.84 29.75 117.53 32.69 C 120.68 33.20 123.81 35.14 127.03 33.93 C 131.93 33.02 138.14 33.30 141.11 37.96 C 141.97 37.19 142.83 36.43 143.69 35.66 C 144.36 33.31 146.61 32.39 148.71 31.68 C 149.09 31.07 149.84 29.85 150.22 29.25 C 153.02 29.07 155.93 29.02 158.54 30.19 C 162.68 29.62 167.44 30.33 169.20 34.71 C 169.63 34.70 170.49 34.70 170.92 34.69 C 173.42 36.74 174.46 39.78 174.27 42.96 C 177.69 45.84 176.77 50.55 176.40 54.47 C 181.32 51.33 188.72 52.07 192.89 56.27 C 192.87 58.00 192.87 59.73 192.88 61.46 C 190.10 64.51 189.65 69.55 185.07 70.79 C 186.01 77.14 191.91 81.40 192.64 87.80 C 192.84 91.32 193.08 94.94 192.25 98.40 C 190.44 103.47 185.62 107.79 180.07 107.90 C 178.15 108.07 176.23 108.11 174.32 108.19 C 175.94 110.64 177.89 112.83 179.77 115.09 C 179.76 117.06 179.76 119.03 179.78 121.01 C 176.46 124.30 172.44 126.82 169.47 130.48 C 171.41 131.07 173.21 132.00 174.74 133.33 C 175.42 140.22 172.89 146.76 171.62 153.42 C 170.63 156.90 170.77 161.16 167.59 163.53 C 164.79 163.57 161.97 163.61 159.27 162.81 C 153.29 161.17 147.18 163.03 141.45 164.72 C 134.21 167.02 126.97 169.44 119.46 170.69 C 111.06 172.36 102.45 171.79 93.95 171.89 C 82.31 171.94 71.00 168.71 60.05 165.07 C 54.07 163.30 47.73 161.14 41.45 162.73 C 38.67 163.53 35.77 163.62 32.89 163.55 C 32.11 162.77 31.33 161.99 30.55 161.21 C 28.87 152.00 25.32 143.01 25.50 133.57 C 26.99 132.05 28.84 131.07 30.92 130.64 C 28.09 126.74 23.80 124.36 20.53 120.88 C 20.54 119.01 20.55 117.13 20.53 115.26 C 22.37 112.91 24.37 110.69 26.09 108.25 C 22.25 107.85 18.00 108.43 14.59 106.24 C 11.02 103.99 8.07 100.34 7.63 96.03 C 7.46 93.00 7.34 89.91 7.84 86.90 C 9.09 80.92 14.47 76.80 15.29 70.67 C 10.52 69.67 10.42 64.22 7.31 61.42 C 7.32 59.70 7.33 57.98 7.33 56.27 C 11.64 52.15 18.74 51.44 23.89 54.26 C 23.65 50.57 22.40 45.30 26.33 43.12 C 25.77 39.78 27.05 36.77 29.54 34.56 C 29.94 34.66 30.74 34.86 31.14 34.96 C 32.09 33.39 33.00 31.61 34.76 30.82 C 37.43 29.24 40.69 31.03 43.44 29.68 M 43.62 32.98 C 43.53 33.48 43.35 34.49 43.26 34.99 C 42.36 35.14 40.57 35.45 39.67 35.60 C 39.59 34.81 39.41 33.23 39.33 32.44 C 37.48 33.38 35.69 34.45 34.10 35.78 C 34.51 36.59 35.33 38.22 35.73 39.03 C 33.75 41.24 32.71 38.84 31.72 37.16 C 30.30 38.85 29.14 40.77 29.18 43.04 C 31.02 44.29 31.10 46.27 30.50 48.24 C 29.81 47.57 28.41 46.23 27.71 45.56 C 27.17 47.73 25.35 50.60 27.46 52.46 C 28.08 52.76 29.32 53.37 29.94 53.67 C 29.93 54.32 29.92 55.63 29.91 56.29 C 29.04 56.03 27.29 55.52 26.42 55.26 C 26.12 58.12 26.41 62.83 30.59 61.81 C 30.63 62.38 30.72 63.53 30.77 64.10 C 29.88 63.96 28.11 63.67 27.22 63.52 C 27.46 65.73 28.30 67.76 29.75 69.44 C 30.84 69.05 31.93 68.67 33.02 68.30 C 32.93 71.07 32.56 74.08 29.28 74.77 C 30.75 76.12 32.51 77.05 34.43 77.61 C 34.05 78.94 33.69 80.27 33.27 81.58 C 31.52 88.31 24.73 92.56 24.41 99.86 C 21.16 99.35 17.24 98.42 16.06 94.89 C 14.13 89.63 18.09 84.80 20.62 80.53 C 23.32 76.46 23.12 71.36 22.55 66.71 C 25.28 63.82 24.71 58.84 21.25 56.80 C 17.51 54.23 12.86 56.28 9.66 58.73 C 13.01 61.35 12.80 67.19 17.71 67.74 C 17.88 69.51 18.32 71.31 18.01 73.09 C 17.39 78.24 13.18 81.83 11.46 86.55 C 9.24 91.97 10.46 99.03 15.39 102.56 C 18.68 105.24 23.12 105.29 27.14 105.12 C 27.56 105.49 28.40 106.21 28.82 106.57 C 29.86 111.52 25.00 114.11 23.27 118.04 C 24.01 120.30 26.43 121.35 28.09 122.87 C 31.65 125.49 34.18 129.19 36.05 133.15 C 33.48 133.55 30.94 134.11 28.44 134.83 C 29.35 143.53 31.85 152.03 33.89 160.53 C 37.66 160.59 41.25 159.13 45.03 159.19 C 52.73 158.80 60.03 161.60 67.26 163.85 C 86.09 170.16 106.82 170.96 126.04 165.90 C 135.02 163.72 143.59 159.48 152.94 159.19 C 157.46 158.83 161.81 160.18 166.25 160.66 C 167.92 156.12 168.67 151.32 169.78 146.62 C 170.61 142.70 171.99 138.82 171.71 134.76 C 169.26 134.08 166.76 133.56 164.24 133.18 C 166.36 128.61 169.52 124.56 173.71 121.73 C 175.00 120.56 177.53 119.38 176.74 117.26 C 175.31 114.70 172.79 112.89 171.64 110.16 C 171.32 108.45 171.05 105.91 173.17 105.24 C 177.05 104.99 181.37 105.32 184.63 102.78 C 189.74 99.45 190.90 92.46 189.05 86.98 C 187.68 83.27 185.04 80.23 183.32 76.70 C 181.92 73.93 182.42 70.73 182.51 67.76 C 187.42 67.20 187.44 61.56 190.45 58.67 C 187.32 56.14 182.57 54.27 178.97 56.98 C 175.67 59.00 175.32 63.81 177.81 66.61 C 177.24 71.24 177.09 76.28 179.71 80.36 C 182.30 84.65 185.99 89.29 184.50 94.64 C 183.35 98.34 179.29 99.51 175.84 99.82 C 175.37 96.31 174.21 92.87 171.83 90.19 C 168.76 86.64 166.99 82.22 165.95 77.69 C 167.83 76.91 169.63 75.96 171.37 74.90 C 170.19 74.29 169.02 73.67 167.85 73.07 C 167.66 71.48 167.48 69.89 167.32 68.29 C 168.04 68.51 169.47 68.95 170.19 69.17 C 172.55 68.31 172.62 65.59 172.95 63.51 C 171.80 63.75 170.66 63.99 169.52 64.25 C 169.56 63.62 169.62 62.36 169.65 61.73 C 170.89 61.63 172.14 61.52 173.39 61.40 C 173.64 59.38 173.80 57.35 173.88 55.31 C 172.74 55.65 171.60 56.01 170.46 56.36 C 170.39 55.69 170.25 54.37 170.17 53.70 C 171.42 52.96 173.65 52.75 173.71 50.90 C 174.07 49.12 173.21 47.48 172.53 45.91 C 171.78 46.48 170.28 47.61 169.53 48.18 C 168.59 45.69 170.22 43.90 171.56 42.05 C 170.71 40.37 169.81 38.72 168.88 37.09 C 168.21 38.13 167.54 39.18 166.89 40.24 C 166.37 39.96 165.32 39.40 164.80 39.12 C 165.10 37.75 166.48 36.19 165.25 34.90 C 164.00 33.81 162.37 33.33 160.88 32.66 C 160.80 33.48 160.65 35.10 160.57 35.92 C 157.21 35.17 155.52 31.61 151.77 31.91 C 151.80 32.53 151.88 33.77 151.91 34.39 C 149.74 35.21 146.45 35.36 146.60 38.47 C 144.31 40.32 141.62 41.20 138.67 40.94 C 135.95 35.37 128.89 36.30 124.02 38.04 C 108.68 32.46 91.60 32.61 76.23 38.00 C 72.50 36.77 68.65 36.19 64.81 37.29 C 63.55 38.53 62.42 39.88 61.33 41.26 C 59.94 41.01 58.54 40.79 57.15 40.58 C 55.93 39.78 54.70 39.01 53.45 38.28 C 53.45 37.69 53.45 36.52 53.44 35.93 C 51.77 35.43 50.10 34.94 48.43 34.45 C 48.44 33.77 48.45 32.41 48.46 31.73 C 46.85 32.15 45.23 32.57 43.62 32.98 M 23.51 82.51 C 21.53 85.58 19.59 88.70 18.45 92.20 C 19.33 93.68 20.39 95.02 21.63 96.22 C 22.92 90.01 28.36 86.04 30.34 80.13 C 29.14 79.17 27.97 78.18 26.82 77.17 C 26.81 75.63 26.80 74.09 26.78 72.56 C 26.94 72.39 27.26 72.05 27.42 71.88 C 26.76 70.86 26.16 69.80 25.62 68.72 C 26.06 73.37 26.15 78.43 23.51 82.51 M 173.33 71.38 C 173.47 73.34 173.50 75.30 173.54 77.27 C 172.39 78.22 171.22 79.15 170.04 80.07 C 171.89 86.07 177.59 89.97 178.68 96.29 C 179.85 95.02 181.44 93.92 181.72 92.09 C 180.87 88.12 178.19 84.95 176.28 81.47 C 174.28 77.77 174.40 73.43 174.52 69.36 C 174.22 69.86 173.63 70.87 173.33 71.38 Z" />
<path fill="#f9f9f9" opacity="1.00" d=" M 68.22 51.77 C 69.85 51.80 71.47 51.54 73.07 51.20 C 73.32 52.17 73.58 53.14 73.84 54.11 C 70.80 54.91 67.88 56.08 64.99 57.32 C 65.89 55.38 66.95 53.50 68.22 51.77 Z" />
<path fill="#f9f9f9" opacity="1.00" d=" M 126.36 54.10 C 126.79 52.97 127.21 51.83 127.64 50.69 C 128.18 51.03 129.24 51.71 129.77 52.05 C 130.34 51.90 131.47 51.60 132.04 51.44 C 133.34 53.37 134.50 55.37 135.55 57.44 C 132.58 56.10 129.53 54.90 126.36 54.10 Z" />
<path fill="#f9f9f9" opacity="1.00" d=" M 90.46 63.59 C 100.44 61.03 111.39 62.54 120.28 67.76 C 128.74 72.61 135.35 80.69 138.21 90.04 C 141.10 99.28 140.36 109.61 136.11 118.31 C 131.38 128.10 122.42 135.73 112.01 138.88 C 100.68 142.44 87.80 140.55 77.96 133.89 C 68.83 127.84 62.37 117.82 60.94 106.93 C 59.70 98.63 61.35 89.95 65.46 82.64 C 70.70 73.21 80.01 66.19 90.46 63.59 M 94.80 66.84 C 94.79 70.83 94.78 74.81 94.79 78.80 C 98.13 78.49 101.61 79.18 104.85 78.29 C 107.18 77.21 106.64 74.46 106.15 72.46 C 106.34 70.53 106.65 68.12 104.51 67.11 C 101.31 66.59 98.03 66.94 94.80 66.84 M 98.97 80.94 C 96.86 84.99 94.80 89.07 92.69 93.11 C 93.46 93.09 95.01 93.04 95.78 93.01 C 96.02 92.51 96.50 91.50 96.74 91.00 C 98.92 91.03 101.09 91.04 103.27 91.04 C 104.15 92.76 105.84 93.21 107.63 93.33 C 105.69 89.24 103.56 85.25 101.53 81.21 C 100.89 81.15 99.61 81.01 98.97 80.94 M 65.09 95.69 C 65.09 99.70 65.07 103.71 65.11 107.72 C 68.24 107.64 71.38 107.86 74.50 107.56 C 77.35 106.91 77.56 103.64 76.52 101.41 C 76.95 99.46 77.16 97.07 75.01 96.05 C 71.78 95.28 68.39 95.85 65.09 95.69 M 85.03 95.69 C 82.98 99.70 80.94 103.72 78.85 107.71 C 79.61 107.71 81.15 107.72 81.91 107.73 C 82.17 107.20 82.70 106.13 82.96 105.60 C 85.15 105.62 87.35 105.62 89.54 105.65 C 90.33 107.52 92.07 107.95 93.90 107.98 C 91.99 103.83 89.77 99.82 87.76 95.72 C 87.08 95.71 85.71 95.69 85.03 95.69 M 92.49 95.60 C 94.59 98.22 96.71 100.81 98.75 103.47 C 98.77 104.97 98.79 106.47 98.81 107.97 C 102.11 108.57 101.59 105.68 101.61 103.42 C 103.65 100.79 105.70 98.19 107.81 95.62 C 106.93 95.66 105.18 95.73 104.30 95.77 C 102.90 97.64 101.51 99.53 100.11 101.40 C 98.79 99.49 97.42 97.60 96.01 95.75 C 95.13 95.71 93.37 95.64 92.49 95.60 M 109.66 95.72 C 109.64 99.72 109.62 103.72 109.65 107.72 C 113.24 107.57 116.84 107.57 120.43 107.71 C 120.43 107.05 120.42 105.72 120.42 105.06 C 117.63 105.20 114.85 105.22 112.07 105.18 C 112.21 104.57 112.51 103.35 112.65 102.74 C 115.14 102.60 117.63 102.71 120.12 102.77 C 120.12 101.93 120.12 101.09 120.12 100.25 C 117.41 100.33 114.70 100.35 112.00 100.27 C 112.19 99.74 112.56 98.67 112.75 98.14 C 115.32 98.06 117.88 98.17 120.45 98.19 C 120.44 97.37 120.44 96.56 120.43 95.74 C 116.84 95.78 113.25 95.78 109.66 95.72 M 124.74 95.76 C 124.74 99.83 124.68 103.91 124.78 107.98 C 128.18 108.52 127.32 105.27 127.50 103.05 C 128.04 103.02 129.13 102.97 129.67 102.94 C 130.87 104.48 132.07 106.02 133.26 107.57 C 134.38 107.66 135.51 107.75 136.63 107.84 C 135.43 106.17 134.16 104.55 132.89 102.94 C 133.46 102.64 134.62 102.03 135.19 101.73 C 135.76 99.71 135.85 97.27 133.75 96.07 C 130.78 95.53 127.74 95.87 124.74 95.76 M 94.75 110.26 C 94.72 114.24 94.73 118.23 94.73 122.22 C 98.37 122.19 102.01 122.19 105.66 122.21 C 105.66 121.59 105.65 120.35 105.65 119.73 C 102.93 119.74 100.21 119.77 97.49 119.81 C 97.49 119.17 97.48 117.91 97.48 117.28 C 100.08 117.31 102.68 117.34 105.28 117.38 C 105.28 116.76 105.29 115.53 105.30 114.91 C 102.83 114.90 100.35 115.02 97.88 114.92 C 97.59 114.22 97.33 113.51 97.11 112.78 C 99.86 112.72 102.62 112.83 105.37 112.81 C 105.49 112.19 105.73 110.94 105.85 110.32 C 102.15 110.32 98.45 110.38 94.75 110.26 M 94.74 125.11 C 94.71 129.20 94.69 133.29 94.73 137.38 C 95.38 137.27 96.68 137.05 97.33 136.93 C 97.50 135.43 97.51 133.92 97.62 132.42 C 98.45 132.45 100.11 132.50 100.94 132.52 C 102.07 134.04 103.20 135.55 104.31 137.08 C 105.21 137.12 107.00 137.18 107.89 137.21 C 106.73 135.69 105.56 134.18 104.39 132.67 C 106.52 130.86 107.57 127.06 104.49 125.59 C 101.36 124.72 97.97 125.41 94.74 125.11 Z" />
<path fill="#f9f9f9" opacity="1.00" d=" M 68.47 66.79 C 70.51 66.49 72.55 66.17 74.61 66.01 C 73.04 67.97 70.99 69.46 69.19 71.19 C 60.30 79.84 55.52 92.52 56.57 104.89 C 57.50 118.96 66.11 131.81 78.16 138.91 C 71.08 137.15 64.11 134.89 56.89 133.76 C 60.50 130.76 58.67 124.20 53.93 123.69 C 49.49 122.88 45.96 119.85 42.89 116.73 C 45.67 114.13 49.50 112.91 51.96 109.95 C 54.54 106.89 54.10 101.53 50.65 99.30 C 48.88 98.27 46.79 98.07 44.85 97.53 C 45.96 93.88 48.03 90.54 51.00 88.11 C 53.42 86.16 55.11 83.47 57.59 81.59 C 62.53 77.73 64.70 71.62 68.47 66.79 M 49.32 95.11 C 50.86 95.59 52.36 96.23 53.65 97.21 C 53.73 94.48 54.23 91.78 54.82 89.12 C 52.90 91.04 51.01 92.99 49.32 95.11 M 48.35 117.24 C 51.13 119.29 54.31 120.60 57.63 121.48 C 56.06 118.51 55.07 115.27 54.48 111.96 C 52.95 114.26 50.61 115.76 48.35 117.24 M 61.45 127.61 C 61.57 128.85 61.67 130.10 61.73 131.35 C 62.42 131.57 63.80 132.00 64.49 132.21 C 63.35 130.76 62.28 129.26 61.45 127.61 Z" />
<path fill="#f9f9f9" opacity="1.00" d=" M 125.52 66.40 C 127.69 66.10 129.86 66.45 132.00 66.79 C 134.39 70.19 136.39 73.84 138.73 77.28 C 140.98 80.66 144.63 82.71 147.08 85.93 C 150.72 89.16 154.26 92.72 155.69 97.52 C 153.84 98.04 151.90 98.29 150.14 99.09 C 146.74 100.95 145.72 105.85 147.84 109.03 C 149.81 112.31 153.62 113.58 156.54 115.78 C 157.74 116.64 156.24 117.94 155.61 118.60 C 152.90 121.27 149.50 123.20 145.76 123.92 C 141.41 124.90 140.11 131.04 143.57 133.79 C 136.25 134.81 129.25 137.32 122.04 138.86 C 132.45 132.95 140.29 122.67 142.87 110.94 C 146.79 94.31 139.54 76.07 125.52 66.40 M 145.04 88.46 C 146.36 91.52 146.74 94.88 146.60 98.20 C 147.22 96.21 149.24 95.74 150.95 95.07 C 149.12 92.74 147.00 90.66 145.04 88.46 M 145.87 112.42 C 145.27 115.41 144.25 118.30 143.03 121.09 C 146.37 120.74 149.31 119.16 151.99 117.22 C 149.81 115.79 147.74 114.23 145.87 112.42 M 138.31 128.37 C 137.53 129.40 135.86 130.76 136.43 132.19 C 138.57 133.38 139.93 129.37 138.31 128.37 Z" />
<path fill="#f9f9f9" opacity="1.00" d=" M 97.27 69.27 C 99.44 69.68 103.57 67.82 104.01 70.96 C 101.96 71.76 99.71 71.46 97.56 71.59 C 97.49 71.01 97.34 69.85 97.27 69.27 Z" />
<path fill="#f9f9f9" opacity="1.00" d=" M 97.39 73.80 C 99.55 73.83 101.72 73.72 103.86 74.04 C 103.89 74.54 103.96 75.53 103.99 76.03 C 101.85 76.51 99.64 76.37 97.46 76.43 C 97.43 75.55 97.41 74.67 97.39 73.80 Z" />
<path fill="#f9f9f9" opacity="1.00" d=" M 97.87 88.62 C 98.61 87.00 99.34 85.38 100.08 83.76 C 100.90 85.38 101.69 87.01 102.46 88.66 C 100.93 88.65 99.40 88.64 97.87 88.62 Z" />
<path fill="#f9f9f9" opacity="1.00" d=" M 67.84 98.21 C 69.84 98.76 74.41 96.78 74.10 100.05 C 72.13 100.35 70.13 100.30 68.14 100.37 C 68.07 99.83 67.92 98.75 67.84 98.21 Z" />
<path fill="#f9f9f9" opacity="1.00" d=" M 127.28 100.66 C 127.40 99.73 127.52 98.79 127.65 97.86 C 129.31 98.07 131.04 97.97 132.65 98.47 C 134.15 99.24 132.19 101.11 131.07 100.64 C 129.80 100.68 128.54 100.69 127.28 100.66 Z" />
<path fill="#f9f9f9" opacity="1.00" d=" M 84.13 103.23 C 84.85 101.69 85.55 100.14 86.25 98.59 C 87.09 100.13 87.90 101.68 88.70 103.23 C 87.18 103.22 85.66 103.22 84.13 103.23 Z" />
<path fill="#f9f9f9" opacity="1.00" d=" M 67.93 102.76 C 70.07 102.75 72.21 102.77 74.35 102.85 C 74.32 103.60 74.30 104.35 74.28 105.11 C 72.17 105.16 70.05 105.17 67.93 105.17 C 67.93 104.57 67.93 103.36 67.93 102.76 Z" />
<path fill="#f9f9f9" opacity="1.00" d=" M 97.63 127.56 C 99.68 127.66 101.77 127.50 103.77 128.05 C 104.08 131.43 99.38 129.61 97.29 129.90 C 97.38 129.32 97.55 128.15 97.63 127.56 Z" />
</g>
<g id="#080808ff">
<path fill="#080808" opacity="1.00" d=" M 43.62 32.98 C 45.23 32.57 46.85 32.15 48.46 31.73 C 48.45 32.41 48.44 33.77 48.43 34.45 C 50.10 34.94 51.77 35.43 53.44 35.93 C 53.45 36.52 53.45 37.69 53.45 38.28 C 54.70 39.01 55.93 39.78 57.15 40.58 C 58.54 40.79 59.94 41.01 61.33 41.26 C 62.42 39.88 63.55 38.53 64.81 37.29 C 68.65 36.19 72.50 36.77 76.23 38.00 C 91.60 32.61 108.68 32.46 124.02 38.04 C 128.89 36.30 135.95 35.37 138.67 40.94 C 141.62 41.20 144.31 40.32 146.60 38.47 C 146.45 35.36 149.74 35.21 151.91 34.39 C 151.88 33.77 151.80 32.53 151.77 31.91 C 155.52 31.61 157.21 35.17 160.57 35.92 C 160.65 35.10 160.80 33.48 160.88 32.66 C 162.37 33.33 164.00 33.81 165.25 34.90 C 166.48 36.19 165.10 37.75 164.80 39.12 C 165.32 39.40 166.37 39.96 166.89 40.24 C 167.54 39.18 168.21 38.13 168.88 37.09 C 169.81 38.72 170.71 40.37 171.56 42.05 C 170.22 43.90 168.59 45.69 169.53 48.18 C 170.28 47.61 171.78 46.48 172.53 45.91 C 173.21 47.48 174.07 49.12 173.71 50.90 C 173.65 52.75 171.42 52.96 170.17 53.70 C 170.25 54.37 170.39 55.69 170.46 56.36 C 171.60 56.01 172.74 55.65 173.88 55.31 C 173.80 57.35 173.64 59.38 173.39 61.40 C 172.14 61.52 170.89 61.63 169.65 61.73 C 169.62 62.36 169.56 63.62 169.52 64.25 C 170.66 63.99 171.80 63.75 172.95 63.51 C 172.62 65.59 172.55 68.31 170.19 69.17 C 169.47 68.95 168.04 68.51 167.32 68.29 C 167.48 69.89 167.66 71.48 167.85 73.07 C 169.02 73.67 170.19 74.29 171.37 74.90 C 169.63 75.96 167.83 76.91 165.95 77.69 C 166.99 82.22 168.76 86.64 171.83 90.19 C 174.21 92.87 175.37 96.31 175.84 99.82 C 179.29 99.51 183.35 98.34 184.50 94.64 C 185.99 89.29 182.30 84.65 179.71 80.36 C 177.09 76.28 177.24 71.24 177.81 66.61 C 175.32 63.81 175.67 59.00 178.97 56.98 C 182.57 54.27 187.32 56.14 190.45 58.67 C 187.44 61.56 187.42 67.20 182.51 67.76 C 182.42 70.73 181.92 73.93 183.32 76.70 C 185.04 80.23 187.68 83.27 189.05 86.98 C 190.90 92.46 189.74 99.45 184.63 102.78 C 181.37 105.32 177.05 104.99 173.17 105.24 C 171.05 105.91 171.32 108.45 171.64 110.16 C 172.79 112.89 175.31 114.70 176.74 117.26 C 177.53 119.38 175.00 120.56 173.71 121.73 C 169.52 124.56 166.36 128.61 164.24 133.18 C 166.76 133.56 169.26 134.08 171.71 134.76 C 171.99 138.82 170.61 142.70 169.78 146.62 C 168.67 151.32 167.92 156.12 166.25 160.66 C 161.81 160.18 157.46 158.83 152.94 159.19 C 143.59 159.48 135.02 163.72 126.04 165.90 C 106.82 170.96 86.09 170.16 67.26 163.85 C 60.03 161.60 52.73 158.80 45.03 159.19 C 41.25 159.13 37.66 160.59 33.89 160.53 C 31.85 152.03 29.35 143.53 28.44 134.83 C 30.94 134.11 33.48 133.55 36.05 133.15 C 34.18 129.19 31.65 125.49 28.09 122.87 C 26.43 121.35 24.01 120.30 23.27 118.04 C 25.00 114.11 29.86 111.52 28.82 106.57 C 28.40 106.21 27.56 105.49 27.14 105.12 C 23.12 105.29 18.68 105.24 15.39 102.56 C 10.46 99.03 9.24 91.97 11.46 86.55 C 13.18 81.83 17.39 78.24 18.01 73.09 C 18.32 71.31 17.88 69.51 17.71 67.74 C 12.80 67.19 13.01 61.35 9.66 58.73 C 12.86 56.28 17.51 54.23 21.25 56.80 C 24.71 58.84 25.28 63.82 22.55 66.71 C 23.12 71.36 23.32 76.46 20.62 80.53 C 18.09 84.80 14.13 89.63 16.06 94.89 C 17.24 98.42 21.16 99.35 24.41 99.86 C 24.73 92.56 31.52 88.31 33.27 81.58 C 33.69 80.27 34.05 78.94 34.43 77.61 C 32.51 77.05 30.75 76.12 29.28 74.77 C 32.56 74.08 32.93 71.07 33.02 68.30 C 31.93 68.67 30.84 69.05 29.75 69.44 C 28.30 67.76 27.46 65.73 27.22 63.52 C 28.11 63.67 29.88 63.96 30.77 64.10 C 30.72 63.53 30.63 62.38 30.59 61.81 C 26.41 62.83 26.12 58.12 26.42 55.26 C 27.29 55.52 29.04 56.03 29.91 56.29 C 29.92 55.63 29.93 54.32 29.94 53.67 C 29.32 53.37 28.08 52.76 27.46 52.46 C 25.35 50.60 27.17 47.73 27.71 45.56 C 28.41 46.23 29.81 47.57 30.50 48.24 C 31.10 46.27 31.02 44.29 29.18 43.04 C 29.14 40.77 30.30 38.85 31.72 37.16 C 32.71 38.84 33.75 41.24 35.73 39.03 C 35.33 38.22 34.51 36.59 34.10 35.78 C 35.69 34.45 37.48 33.38 39.33 32.44 C 39.41 33.23 39.59 34.81 39.67 35.60 C 40.57 35.45 42.36 35.14 43.26 34.99 C 43.35 34.49 43.53 33.48 43.62 32.98 M 44.88 33.54 C 45.24 34.60 45.60 35.66 45.96 36.72 C 43.66 36.77 41.36 36.88 39.06 36.99 C 38.32 36.17 37.58 35.36 36.82 34.56 C 35.93 36.14 36.86 37.47 37.83 38.71 C 36.64 39.87 35.45 41.03 34.26 42.18 C 33.05 41.53 31.83 40.90 30.61 40.28 C 30.52 42.31 31.68 43.42 33.53 43.86 C 33.20 45.15 32.84 46.44 32.44 47.71 C 31.90 49.73 29.32 48.85 27.82 49.29 C 28.08 49.92 28.61 51.19 28.88 51.83 C 29.62 51.69 31.09 51.43 31.83 51.30 C 31.79 53.07 31.85 54.86 31.61 56.63 C 30.63 58.01 28.73 57.72 27.32 58.21 C 28.31 60.09 29.89 60.29 31.73 59.38 C 32.04 61.20 32.32 63.03 32.43 64.87 C 31.48 65.21 29.57 65.89 28.61 66.23 C 30.36 66.78 32.18 67.02 34.01 67.14 C 35.55 70.14 33.94 73.31 32.49 75.97 C 36.55 75.78 36.17 70.71 38.95 68.65 C 39.69 69.44 40.40 70.27 41.07 71.13 C 41.12 73.70 39.54 76.74 42.07 78.67 C 42.71 75.79 42.11 71.80 45.13 70.11 C 48.95 70.62 47.72 74.98 48.26 77.66 C 49.21 78.42 50.24 79.07 51.34 79.61 C 50.13 76.51 49.74 73.22 50.20 69.93 C 53.36 69.24 55.09 71.57 56.48 74.01 C 56.92 73.80 57.80 73.37 58.25 73.16 C 56.53 70.80 57.39 68.12 58.37 65.67 C 59.18 66.09 59.98 66.50 60.79 66.92 C 61.04 66.50 61.52 65.68 61.77 65.26 C 57.89 64.14 56.91 60.30 56.20 56.82 C 53.49 56.75 50.47 57.51 48.09 55.83 C 45.10 54.06 41.32 52.97 39.97 49.41 C 40.45 48.03 40.92 46.64 41.38 45.25 C 40.65 44.15 39.93 43.04 39.21 41.94 C 39.67 41.52 40.57 40.67 41.02 40.25 C 44.73 39.02 48.53 38.09 52.45 37.91 C 49.78 36.72 47.26 35.23 44.88 33.54 M 152.33 35.63 C 150.90 36.48 149.46 37.30 147.99 38.09 C 152.68 38.09 157.31 39.23 161.31 41.70 C 160.52 42.82 159.73 43.94 158.94 45.06 C 159.40 47.24 160.89 49.99 158.90 51.85 C 156.96 53.45 154.56 54.37 152.44 55.70 C 150.00 57.45 146.89 56.69 144.11 56.78 C 143.35 60.34 142.38 64.28 138.38 65.41 C 139.24 66.95 140.74 66.54 142.14 66.14 C 143.00 68.54 143.68 71.12 141.96 73.37 C 142.96 73.65 144.14 74.20 144.63 72.86 C 145.79 70.83 147.70 69.72 150.05 69.78 C 150.59 73.13 150.10 76.47 148.96 79.64 C 150.49 78.88 152.68 78.17 152.24 76.00 C 151.97 73.39 152.82 71.04 155.15 69.67 C 157.56 72.08 158.05 75.44 158.25 78.69 C 161.08 76.94 159.26 73.78 159.22 71.18 C 160.03 70.33 160.95 69.59 161.84 68.82 C 163.99 71.15 163.93 76.43 168.05 75.79 C 166.06 73.08 165.25 69.71 166.73 66.58 C 168.48 67.14 170.34 67.87 171.76 66.16 C 170.60 65.70 169.47 65.20 168.37 64.64 C 167.67 62.85 168.63 61.00 168.92 59.22 C 169.50 59.58 170.66 60.30 171.24 60.66 C 171.68 59.99 172.56 58.66 173.00 58.00 C 171.43 57.71 169.91 57.28 168.51 56.53 C 168.62 54.95 168.71 53.37 168.80 51.80 C 170.75 51.68 172.63 51.32 172.81 48.97 C 171.84 48.92 169.91 48.82 168.94 48.76 C 167.41 47.77 167.68 45.53 167.06 43.99 C 168.98 43.58 169.92 42.20 169.83 40.29 C 168.57 40.82 167.30 41.33 166.03 41.81 C 164.74 41.00 163.72 39.84 162.61 38.82 C 163.60 37.42 164.57 35.91 163.30 34.32 C 162.62 35.18 161.95 36.04 161.29 36.91 C 159.02 36.80 156.76 36.70 154.50 36.71 C 154.73 35.86 155.19 34.16 155.42 33.31 C 154.43 34.14 153.40 34.91 152.33 35.63 M 78.09 40.22 C 76.27 40.76 75.05 42.29 73.71 43.53 C 74.82 44.62 75.92 45.72 76.99 46.84 C 76.50 47.46 75.52 48.71 75.03 49.33 C 75.52 50.69 75.99 52.06 76.48 53.42 C 80.69 54.49 80.46 59.40 81.62 62.75 C 93.16 57.16 107.19 57.33 118.77 62.73 C 119.87 59.39 119.82 54.58 123.95 53.48 C 124.39 52.19 124.82 50.90 125.24 49.60 C 122.97 47.27 124.50 44.94 126.76 43.43 C 125.35 42.15 124.01 40.63 122.11 40.10 C 107.98 35.19 92.19 35.24 78.09 40.22 M 66.45 41.08 C 66.17 40.49 65.60 39.31 65.32 38.72 C 64.71 39.52 64.11 40.33 63.50 41.15 C 66.69 43.56 64.54 47.54 63.63 50.56 C 60.91 50.99 58.12 50.91 55.46 51.71 C 57.95 52.07 60.45 52.20 62.95 52.40 C 62.20 54.80 60.48 56.39 58.01 56.93 C 58.39 58.12 58.77 59.31 59.16 60.50 C 60.73 59.45 63.08 58.95 63.55 56.85 C 64.46 54.14 65.86 51.63 67.96 49.67 C 70.97 50.68 73.29 48.44 75.45 46.71 C 74.19 46.07 72.92 45.44 71.65 44.80 C 72.68 42.73 73.98 40.82 75.25 38.90 C 73.02 38.70 71.48 40.08 70.14 41.65 C 69.93 41.51 69.50 41.21 69.29 41.07 C 69.73 39.84 70.15 38.61 70.57 37.37 C 69.12 38.53 67.82 39.84 66.45 41.08 M 129.67 37.32 C 130.11 38.58 130.58 39.83 131.06 41.08 L 130.18 41.61 C 128.88 40.10 127.40 38.72 125.30 38.54 C 126.35 40.64 127.54 42.67 128.60 44.77 C 127.40 45.47 126.21 46.17 125.02 46.87 C 127.18 48.42 129.37 50.77 132.32 49.67 C 134.97 51.94 136.14 55.21 137.50 58.30 C 138.71 59.22 140.04 59.95 141.33 60.75 C 141.70 59.41 142.07 58.07 142.44 56.73 C 139.86 56.51 138.15 54.82 137.54 52.36 C 139.73 52.24 141.93 52.17 144.12 52.12 L 144.02 50.90 C 141.61 50.88 139.21 50.86 136.80 50.90 C 136.07 48.29 135.39 45.67 134.80 43.02 C 135.41 42.66 136.63 41.93 137.25 41.57 C 136.35 40.49 135.46 39.42 134.56 38.36 C 134.47 39.12 134.28 40.66 134.19 41.42 C 132.85 39.88 131.47 38.33 129.67 37.32 M 46.16 39.99 C 45.73 40.35 44.88 41.07 44.45 41.43 C 43.19 41.60 41.94 41.77 40.68 41.94 C 41.50 42.78 42.32 43.61 43.14 44.43 C 42.69 46.30 42.08 48.14 41.97 50.07 C 43.98 52.37 47.29 52.94 49.59 54.95 C 53.39 54.87 57.53 55.86 61.04 53.98 C 58.98 53.81 56.92 53.73 54.85 53.65 C 54.84 52.20 54.83 50.75 54.82 49.30 C 57.39 49.18 59.95 49.08 62.52 48.98 C 63.00 47.21 63.50 45.44 64.03 43.68 C 60.99 42.90 57.78 42.55 54.98 41.05 C 52.32 39.41 49.11 40.08 46.16 39.99 M 145.85 40.76 C 142.96 42.45 139.59 42.78 136.41 43.61 C 136.92 45.42 137.43 47.23 137.89 49.05 C 140.40 49.14 142.92 49.22 145.44 49.29 C 145.44 50.75 145.43 52.20 145.42 53.66 C 143.32 53.69 141.22 53.74 139.13 53.92 C 143.78 55.91 149.74 55.95 154.05 53.05 C 155.54 52.08 157.65 51.67 158.42 49.90 C 158.42 48.09 157.76 46.37 157.36 44.63 C 158.10 43.66 158.83 42.68 159.56 41.71 C 158.74 41.65 157.10 41.52 156.29 41.46 C 155.57 40.94 154.85 40.42 154.14 39.90 C 151.38 40.05 148.37 39.36 145.85 40.76 M 68.22 51.77 C 66.95 53.50 65.89 55.38 64.99 57.32 C 67.88 56.08 70.80 54.91 73.84 54.11 C 73.58 53.14 73.32 52.17 73.07 51.20 C 71.47 51.54 69.85 51.80 68.22 51.77 M 126.36 54.10 C 129.53 54.90 132.58 56.10 135.55 57.44 C 134.50 55.37 133.34 53.37 132.04 51.44 C 131.47 51.60 130.34 51.90 129.77 52.05 C 129.24 51.71 128.18 51.03 127.64 50.69 C 127.21 51.83 126.79 52.97 126.36 54.10 M 69.37 57.48 C 65.87 59.03 62.15 60.37 59.27 62.98 C 60.67 62.85 62.07 62.70 63.48 62.53 C 63.06 64.41 62.62 66.28 62.14 68.15 C 61.24 68.20 59.44 68.31 58.54 68.36 C 59.04 69.79 59.71 71.15 60.54 72.43 C 59.52 73.68 58.65 75.23 57.00 75.71 C 54.62 75.14 53.53 72.64 51.87 71.08 C 51.86 72.97 51.89 74.87 51.93 76.77 C 52.67 77.41 53.40 78.05 54.13 78.68 C 53.16 79.56 52.20 80.46 51.24 81.35 C 53.42 81.25 55.85 81.16 57.39 79.38 C 61.50 75.27 63.75 69.77 67.30 65.23 C 69.10 64.86 70.89 64.46 72.69 64.10 C 74.09 64.49 75.51 64.87 76.98 64.96 C 76.78 63.24 75.80 61.77 75.17 60.19 C 76.80 60.89 78.23 61.94 79.73 62.87 C 80.45 59.58 76.74 58.78 74.55 57.56 C 75.63 57.33 77.78 56.87 78.86 56.64 C 75.83 54.71 72.38 56.40 69.37 57.48 M 121.32 56.43 C 122.41 56.71 124.58 57.27 125.67 57.56 C 123.25 58.71 120.30 59.88 120.52 63.09 C 122.12 62.04 123.60 60.58 125.62 60.42 C 124.70 61.66 123.75 62.89 122.78 64.09 C 124.35 65.06 126.04 64.82 127.67 64.11 C 129.41 64.46 131.14 64.82 132.89 65.15 C 136.89 69.88 138.99 76.08 143.80 80.12 C 145.32 81.55 147.45 81.22 149.35 81.20 C 148.64 80.64 147.24 79.53 146.54 78.97 C 148.56 76.73 149.44 73.79 148.37 70.87 C 146.91 72.42 146.01 74.63 144.01 75.60 C 141.77 75.68 140.80 73.51 139.54 72.07 C 140.16 71.64 141.38 70.78 141.99 70.34 C 141.68 69.72 141.36 69.09 141.05 68.47 C 137.79 68.52 137.14 65.38 136.99 62.80 C 137.95 62.80 139.85 62.79 140.80 62.79 C 139.52 60.68 136.71 60.29 134.71 59.08 C 130.54 57.37 125.89 54.50 121.32 56.43 M 179.55 58.56 C 177.67 59.77 177.89 62.15 177.60 64.08 C 178.14 64.42 179.22 65.12 179.76 65.46 C 178.92 69.25 178.33 73.34 179.84 77.04 C 181.69 81.53 185.40 85.18 186.25 90.10 C 187.26 94.28 184.92 99.30 180.60 100.44 C 178.24 101.27 174.85 100.46 173.99 103.52 C 179.66 104.24 186.17 101.66 187.85 95.77 C 189.91 89.64 185.96 84.02 182.84 79.10 C 180.35 75.41 180.71 70.79 181.17 66.58 C 185.50 66.17 186.37 61.66 188.25 58.56 C 185.48 57.65 182.04 56.25 179.55 58.56 M 12.35 58.54 C 14.11 61.49 14.80 66.04 19.04 66.18 C 19.49 68.74 20.09 71.36 19.59 73.96 C 18.66 79.55 13.91 83.44 12.53 88.86 C 11.08 93.59 13.05 99.25 17.39 101.76 C 20.04 103.48 23.33 103.35 26.36 103.36 C 25.15 100.94 22.38 101.27 20.16 100.65 C 16.31 99.84 13.59 95.89 13.83 92.02 C 13.81 86.89 17.41 82.91 19.69 78.63 C 21.91 74.72 21.11 70.05 20.77 65.79 C 22.77 63.94 23.34 60.77 21.03 58.87 C 18.64 56.40 15.15 57.76 12.35 58.54 M 90.46 63.59 C 80.01 66.19 70.70 73.21 65.46 82.64 C 61.35 89.95 59.70 98.63 60.94 106.93 C 62.37 117.82 68.83 127.84 77.96 133.89 C 87.80 140.55 100.68 142.44 112.01 138.88 C 122.42 135.73 131.38 128.10 136.11 118.31 C 140.36 109.61 141.10 99.28 138.21 90.04 C 135.35 80.69 128.74 72.61 120.28 67.76 C 111.39 62.54 100.44 61.03 90.46 63.59 M 68.47 66.79 C 64.70 71.62 62.53 77.73 57.59 81.59 C 55.11 83.47 53.42 86.16 51.00 88.11 C 48.03 90.54 45.96 93.88 44.85 97.53 C 46.79 98.07 48.88 98.27 50.65 99.30 C 54.10 101.53 54.54 106.89 51.96 109.95 C 49.50 112.91 45.67 114.13 42.89 116.73 C 45.96 119.85 49.49 122.88 53.93 123.69 C 58.67 124.20 60.50 130.76 56.89 133.76 C 64.11 134.89 71.08 137.15 78.16 138.91 C 66.11 131.81 57.50 118.96 56.57 104.89 C 55.52 92.52 60.30 79.84 69.19 71.19 C 70.99 69.46 73.04 67.97 74.61 66.01 C 72.55 66.17 70.51 66.49 68.47 66.79 M 125.52 66.40 C 139.54 76.07 146.79 94.31 142.87 110.94 C 140.29 122.67 132.45 132.95 122.04 138.86 C 129.25 137.32 136.25 134.81 143.57 133.79 C 140.11 131.04 141.41 124.90 145.76 123.92 C 149.50 123.20 152.90 121.27 155.61 118.60 C 156.24 117.94 157.74 116.64 156.54 115.78 C 153.62 113.58 149.81 112.31 147.84 109.03 C 145.72 105.85 146.74 100.95 150.14 99.09 C 151.90 98.29 153.84 98.04 155.69 97.52 C 154.26 92.72 150.72 89.16 147.08 85.93 C 144.63 82.71 140.98 80.66 138.73 77.28 C 136.39 73.84 134.39 70.19 132.00 66.79 C 129.86 66.45 127.69 66.10 125.52 66.40 M 38.41 71.22 C 35.85 77.22 35.41 84.13 31.33 89.44 C 29.08 92.54 26.13 95.84 26.70 99.98 C 27.50 105.13 34.37 106.65 34.72 111.99 C 34.39 114.51 32.21 116.20 30.76 118.12 C 35.71 121.55 40.30 125.69 42.86 131.26 C 43.43 133.20 45.69 132.63 47.21 133.02 C 46.75 131.13 46.27 129.24 45.88 127.34 C 48.43 128.07 48.80 130.83 49.54 132.96 C 50.83 132.96 52.11 132.95 53.40 132.94 C 53.00 130.84 52.59 128.74 52.29 126.63 C 54.29 127.72 54.90 129.85 55.55 131.86 C 55.95 131.63 56.76 131.18 57.16 130.96 C 56.51 129.19 56.57 126.46 54.30 125.93 C 50.63 124.86 46.99 123.44 44.18 120.77 C 42.76 119.39 40.72 117.68 41.36 115.46 C 43.87 112.51 48.02 111.58 50.45 108.53 C 52.42 106.05 51.68 101.55 48.53 100.41 C 45.18 99.12 41.62 100.25 38.25 100.85 C 38.65 98.60 41.06 98.34 42.79 97.58 C 44.04 91.64 48.46 87.28 53.06 83.68 C 50.65 82.29 48.18 80.68 46.79 78.19 C 46.19 75.89 46.28 73.45 45.38 71.23 C 44.28 73.70 44.00 76.40 44.63 79.03 C 43.71 79.43 42.79 79.83 41.87 80.23 C 40.83 79.17 39.10 78.52 38.77 76.94 C 38.78 75.05 39.34 73.22 39.76 71.39 C 39.42 71.35 38.75 71.26 38.41 71.22 M 160.95 70.21 C 160.84 72.75 161.94 75.43 161.13 77.90 C 160.02 79.99 157.65 79.89 155.76 79.11 C 156.12 76.48 156.94 73.07 154.28 71.33 C 154.08 73.47 154.05 75.63 153.71 77.76 C 152.41 80.49 149.73 82.22 147.22 83.74 C 151.88 87.24 156.30 91.67 157.45 97.62 C 159.18 98.36 161.56 98.60 162.04 100.80 C 158.61 100.12 154.90 98.95 151.53 100.48 C 148.67 101.77 147.88 105.88 149.70 108.31 C 152.04 111.54 156.30 112.46 158.88 115.41 C 159.22 116.67 158.78 117.96 157.93 118.90 C 154.88 122.62 150.41 124.74 145.86 125.95 C 143.17 126.91 143.51 130.21 144.05 132.43 C 145.16 130.32 146.20 128.12 148.00 126.50 C 147.73 128.62 147.30 130.72 146.91 132.83 C 148.27 132.87 149.62 132.91 150.98 132.95 C 151.48 130.67 152.21 128.40 154.40 127.20 C 153.94 128.99 153.44 130.77 152.97 132.56 C 154.17 132.63 155.41 132.99 156.61 132.67 C 158.06 130.73 159.02 128.48 160.44 126.52 C 162.88 123.08 166.40 120.68 169.67 118.12 C 168.16 115.94 165.18 113.94 165.89 110.93 C 167.15 106.36 173.12 104.78 173.78 99.92 C 174.43 95.10 170.48 91.65 168.17 87.92 C 164.50 82.54 164.88 75.47 160.95 70.21 M 31.26 108.12 C 30.52 112.17 27.37 114.87 25.36 118.21 C 30.40 122.10 35.34 126.41 37.80 132.47 C 38.63 132.26 40.29 131.83 41.12 131.62 C 38.60 126.10 33.38 122.88 29.18 118.83 C 29.16 116.05 32.05 114.41 32.99 111.95 C 32.50 110.64 31.86 109.38 31.26 108.12 M 167.04 112.00 C 168.57 114.08 170.17 116.12 171.70 118.20 C 167.39 122.62 161.62 125.85 159.24 131.87 C 160.14 131.98 161.93 132.21 162.82 132.33 C 165.20 126.18 170.28 121.86 175.45 118.06 C 172.76 115.19 170.17 112.09 169.25 108.15 C 168.50 109.43 167.77 110.71 167.04 112.00 M 31.21 136.89 C 32.80 143.85 34.34 150.82 35.94 157.77 C 46.87 154.43 58.09 157.77 68.48 161.34 C 85.47 167.02 104.00 168.07 121.51 164.23 C 128.86 162.66 135.87 159.91 143.12 158.00 C 150.04 156.13 157.48 155.87 164.37 157.98 C 166.27 150.97 167.68 143.84 169.31 136.77 C 163.28 135.42 157.06 134.74 150.89 135.38 C 138.99 136.37 127.74 140.71 116.08 142.96 C 105.51 145.12 94.51 145.10 83.94 142.93 C 72.26 140.66 60.98 136.34 49.04 135.46 C 43.07 134.94 37.04 135.54 31.21 136.89 Z" />
<path fill="#080808" opacity="1.00" d=" M 50.22 44.64 C 49.96 43.20 51.13 42.20 51.82 41.09 C 52.90 41.90 53.97 42.72 55.04 43.56 C 53.44 43.97 51.85 44.40 50.22 44.64 Z" />
<path fill="#080808" opacity="1.00" d=" M 145.36 43.64 C 146.48 42.80 147.62 41.99 148.75 41.16 C 149.14 42.25 150.67 43.34 149.66 44.51 C 148.21 44.34 146.79 43.94 145.36 43.64 Z" />
<path fill="#080808" opacity="1.00" d=" M 87.58 48.50 C 85.54 45.21 89.51 41.14 92.91 42.17 C 97.37 43.65 97.67 50.62 94.15 53.24 C 92.51 54.36 90.14 55.69 88.50 53.85 C 90.97 52.83 93.35 51.55 94.81 49.22 C 92.50 49.91 89.10 51.26 87.58 48.50 M 88.87 45.98 C 89.63 46.83 90.26 47.84 91.23 48.48 C 92.37 48.10 93.45 47.57 94.56 47.09 C 93.72 46.03 93.18 44.64 91.99 43.89 C 90.58 43.81 89.88 45.27 88.87 45.98 Z" />
<path fill="#080808" opacity="1.00" d=" M 100.40 42.51 C 102.74 40.62 106.69 41.74 107.26 44.81 C 108.41 48.41 106.92 54.61 102.12 53.95 C 97.31 52.65 97.34 45.54 100.40 42.51 M 100.84 46.96 C 100.49 48.98 100.83 52.88 103.79 52.03 C 105.83 49.23 105.47 45.34 103.58 42.56 C 102.27 43.73 100.77 45.02 100.84 46.96 Z" />
<path fill="#080808" opacity="1.00" d=" M 79.81 48.65 C 78.20 45.92 81.89 44.89 83.58 43.58 C 84.90 47.48 86.04 51.43 87.33 55.34 C 86.75 55.54 85.57 55.95 84.99 56.16 C 84.01 52.95 83.04 49.73 82.14 46.50 C 81.56 47.04 80.40 48.11 79.81 48.65 Z" />
<path fill="#080808" opacity="1.00" d=" M 108.52 50.93 C 110.71 48.21 113.42 46.01 116.06 43.75 C 116.83 43.94 118.36 44.32 119.12 44.51 C 118.64 47.27 116.33 50.42 118.67 52.86 C 116.94 53.34 116.12 54.81 115.49 56.36 C 113.68 55.75 114.20 53.96 114.25 52.48 C 112.33 52.00 110.41 51.50 108.52 50.93 M 111.59 50.04 C 112.73 50.33 113.86 50.61 115.00 50.89 C 115.55 49.05 116.12 47.21 116.66 45.36 C 114.93 46.88 113.26 48.46 111.59 50.04 Z" />
<path fill="#080808" opacity="1.00" d=" M 94.80 66.84 C 98.03 66.94 101.31 66.59 104.51 67.11 C 106.65 68.12 106.34 70.53 106.15 72.46 C 106.64 74.46 107.18 77.21 104.85 78.29 C 101.61 79.18 98.13 78.49 94.79 78.80 C 94.78 74.81 94.79 70.83 94.80 66.84 M 97.27 69.27 C 97.34 69.85 97.49 71.01 97.56 71.59 C 99.71 71.46 101.96 71.76 104.01 70.96 C 103.57 67.82 99.44 69.68 97.27 69.27 M 97.39 73.80 C 97.41 74.67 97.43 75.55 97.46 76.43 C 99.64 76.37 101.85 76.51 103.99 76.03 C 103.96 75.53 103.89 74.54 103.86 74.04 C 101.72 73.72 99.55 73.83 97.39 73.80 Z" />
<path fill="#080808" opacity="1.00" d=" M 98.97 80.94 C 99.61 81.01 100.89 81.15 101.53 81.21 C 103.56 85.25 105.69 89.24 107.63 93.33 C 105.84 93.21 104.15 92.76 103.27 91.04 C 101.09 91.04 98.92 91.03 96.74 91.00 C 96.50 91.50 96.02 92.51 95.78 93.01 C 95.01 93.04 93.46 93.09 92.69 93.11 C 94.80 89.07 96.86 84.99 98.97 80.94 M 97.87 88.62 C 99.40 88.64 100.93 88.65 102.46 88.66 C 101.69 87.01 100.90 85.38 100.08 83.76 C 99.34 85.38 98.61 87.00 97.87 88.62 Z" />
<path fill="#080808" opacity="1.00" d=" M 65.09 95.69 C 68.39 95.85 71.78 95.28 75.01 96.05 C 77.16 97.07 76.95 99.46 76.52 101.41 C 77.56 103.64 77.35 106.91 74.50 107.56 C 71.38 107.86 68.24 107.64 65.11 107.72 C 65.07 103.71 65.09 99.70 65.09 95.69 M 67.84 98.21 C 67.92 98.75 68.07 99.83 68.14 100.37 C 70.13 100.30 72.13 100.35 74.10 100.05 C 74.41 96.78 69.84 98.76 67.84 98.21 M 67.93 102.76 C 67.93 103.36 67.93 104.57 67.93 105.17 C 70.05 105.17 72.17 105.16 74.28 105.11 C 74.30 104.35 74.32 103.60 74.35 102.85 C 72.21 102.77 70.07 102.75 67.93 102.76 Z" />
<path fill="#080808" opacity="1.00" d=" M 85.03 95.69 C 85.71 95.69 87.08 95.71 87.76 95.72 C 89.77 99.82 91.99 103.83 93.90 107.98 C 92.07 107.95 90.33 107.52 89.54 105.65 C 87.35 105.62 85.15 105.62 82.96 105.60 C 82.70 106.13 82.17 107.20 81.91 107.73 C 81.15 107.72 79.61 107.71 78.85 107.71 C 80.94 103.72 82.98 99.70 85.03 95.69 M 84.13 103.23 C 85.66 103.22 87.18 103.22 88.70 103.23 C 87.90 101.68 87.09 100.13 86.25 98.59 C 85.55 100.14 84.85 101.69 84.13 103.23 Z" />
<path fill="#080808" opacity="1.00" d=" M 92.49 95.60 C 93.37 95.64 95.13 95.71 96.01 95.75 C 97.42 97.60 98.79 99.49 100.11 101.40 C 101.51 99.53 102.90 97.64 104.30 95.77 C 105.18 95.73 106.93 95.66 107.81 95.62 C 105.70 98.19 103.65 100.79 101.61 103.42 C 101.59 105.68 102.11 108.57 98.81 107.97 C 98.79 106.47 98.77 104.97 98.75 103.47 C 96.71 100.81 94.59 98.22 92.49 95.60 Z" />
<path fill="#080808" opacity="1.00" d=" M 109.66 95.72 C 113.25 95.78 116.84 95.78 120.43 95.74 C 120.44 96.56 120.44 97.37 120.45 98.19 C 117.88 98.17 115.32 98.06 112.75 98.14 C 112.56 98.67 112.19 99.74 112.00 100.27 C 114.70 100.35 117.41 100.33 120.12 100.25 C 120.12 101.09 120.12 101.93 120.12 102.77 C 117.63 102.71 115.14 102.60 112.65 102.74 C 112.51 103.35 112.21 104.57 112.07 105.18 C 114.85 105.22 117.63 105.20 120.42 105.06 C 120.42 105.72 120.43 107.05 120.43 107.71 C 116.84 107.57 113.24 107.57 109.65 107.72 C 109.62 103.72 109.64 99.72 109.66 95.72 Z" />
<path fill="#080808" opacity="1.00" d=" M 124.74 95.76 C 127.74 95.87 130.78 95.53 133.75 96.07 C 135.85 97.27 135.76 99.71 135.19 101.73 C 134.62 102.03 133.46 102.64 132.89 102.94 C 134.16 104.55 135.43 106.17 136.63 107.84 C 135.51 107.75 134.38 107.66 133.26 107.57 C 132.07 106.02 130.87 104.48 129.67 102.94 C 129.13 102.97 128.04 103.02 127.50 103.05 C 127.32 105.27 128.18 108.52 124.78 107.98 C 124.68 103.91 124.74 99.83 124.74 95.76 M 127.28 100.66 C 128.54 100.69 129.80 100.68 131.07 100.64 C 132.19 101.11 134.15 99.24 132.65 98.47 C 131.04 97.97 129.31 98.07 127.65 97.86 C 127.52 98.79 127.40 99.73 127.28 100.66 Z" />
<path fill="#080808" opacity="1.00" d=" M 94.75 110.26 C 98.45 110.38 102.15 110.32 105.85 110.32 C 105.73 110.94 105.49 112.19 105.37 112.81 C 102.62 112.83 99.86 112.72 97.11 112.78 C 97.33 113.51 97.59 114.22 97.88 114.92 C 100.35 115.02 102.83 114.90 105.30 114.91 C 105.29 115.53 105.28 116.76 105.28 117.38 C 102.68 117.34 100.08 117.31 97.48 117.28 C 97.48 117.91 97.49 119.17 97.49 119.81 C 100.21 119.77 102.93 119.74 105.65 119.73 C 105.65 120.35 105.66 121.59 105.66 122.21 C 102.01 122.19 98.37 122.19 94.73 122.22 C 94.73 118.23 94.72 114.24 94.75 110.26 Z" />
<path fill="#080808" opacity="1.00" d=" M 94.74 125.11 C 97.97 125.41 101.36 124.72 104.49 125.59 C 107.57 127.06 106.52 130.86 104.39 132.67 C 105.56 134.18 106.73 135.69 107.89 137.21 C 107.00 137.18 105.21 137.12 104.31 137.08 C 103.20 135.55 102.07 134.04 100.94 132.52 C 100.11 132.50 98.45 132.45 97.62 132.42 C 97.51 133.92 97.50 135.43 97.33 136.93 C 96.68 137.05 95.38 137.27 94.73 137.38 C 94.69 133.29 94.71 129.20 94.74 125.11 M 97.63 127.56 C 97.55 128.15 97.38 129.32 97.29 129.90 C 99.38 129.61 104.08 131.43 103.77 128.05 C 101.77 127.50 99.68 127.66 97.63 127.56 Z" />
<path fill="#080808" opacity="1.00" d=" M 42.38 138.96 C 43.16 138.95 44.71 138.92 45.48 138.91 C 45.64 142.83 45.75 146.75 45.86 150.68 C 47.94 150.59 50.03 150.51 52.11 150.43 C 52.16 151.10 52.26 152.44 52.30 153.11 C 49.15 153.18 46.00 153.27 42.84 153.37 C 42.74 148.56 42.45 143.77 42.38 138.96 Z" />
<path fill="#080808" opacity="1.00" d=" M 147.48 142.58 C 148.50 142.94 149.53 143.32 150.55 143.70 C 152.20 143.14 153.99 142.10 155.70 143.10 C 158.59 145.59 157.24 149.79 157.57 153.11 C 156.83 153.12 155.35 153.14 154.61 153.15 C 154.35 150.51 155.29 147.49 153.72 145.16 C 152.47 144.61 150.94 145.12 150.58 146.51 C 150.24 148.70 150.43 150.93 150.40 153.14 C 149.67 153.14 148.23 153.15 147.51 153.16 C 147.51 149.63 147.50 146.10 147.48 142.58 Z" />
<path fill="#080808" opacity="1.00" d=" M 54.36 151.73 C 52.23 147.79 56.49 142.33 60.86 143.90 C 64.20 144.67 64.90 148.51 63.82 151.32 C 61.26 150.63 58.69 149.97 56.09 149.48 C 57.20 152.20 59.98 152.58 62.53 152.91 C 62.46 153.47 62.32 154.58 62.25 155.14 C 59.49 154.64 55.78 154.68 54.36 151.73 M 57.22 147.61 C 58.82 147.92 60.43 148.23 62.05 148.51 C 61.39 146.64 59.97 145.67 57.98 145.66 C 57.79 146.15 57.41 147.12 57.22 147.61 Z" />
<path fill="#080808" opacity="1.00" d=" M 135.07 151.08 C 133.49 147.15 137.83 142.68 141.80 144.20 C 143.95 145.02 144.49 147.40 145.25 149.32 C 142.62 149.82 139.99 150.28 137.39 150.88 C 139.60 153.32 142.77 151.99 145.54 151.59 C 144.13 156.07 136.07 155.84 135.07 151.08 M 136.88 148.85 C 138.64 148.55 140.38 148.16 142.12 147.76 C 141.77 147.23 141.06 146.17 140.71 145.64 C 138.90 146.02 137.63 147.20 136.88 148.85 Z" />
<path fill="#080808" opacity="1.00" d=" M 66.81 145.71 C 67.96 146.14 69.10 146.57 70.25 147.01 C 70.12 149.65 69.92 152.28 69.70 154.91 C 71.33 152.71 72.97 150.52 74.65 148.37 C 75.41 148.71 76.94 149.40 77.70 149.74 C 75.05 152.48 72.50 155.32 69.95 158.16 C 69.02 157.70 68.09 157.24 67.17 156.79 C 67.13 153.09 66.98 149.40 66.81 145.71 Z" />
<path fill="#080808" opacity="1.00" d=" M 99.69 147.84 C 100.71 147.79 101.73 147.74 102.75 147.69 C 102.87 150.77 102.97 153.84 103.13 156.92 C 104.20 155.44 105.25 153.94 106.29 152.45 C 107.55 152.31 108.81 152.18 110.07 152.05 C 108.79 153.63 107.46 155.17 106.14 156.71 C 107.83 158.68 109.52 160.66 111.14 162.68 C 109.83 162.70 108.52 162.71 107.21 162.71 C 106.07 161.11 104.90 159.53 103.69 157.99 C 103.46 159.63 103.29 161.27 103.11 162.92 C 102.42 162.95 101.04 163.01 100.36 163.05 C 100.00 157.98 99.78 152.91 99.69 147.84 Z" />
<path fill="#080808" opacity="1.00" d=" M 125.07 151.99 C 124.25 148.35 128.49 147.37 131.12 146.82 C 131.19 147.36 131.32 148.45 131.39 148.99 C 129.92 149.39 128.46 149.83 127.02 150.33 C 129.32 151.72 133.92 151.21 133.76 154.85 C 133.36 158.12 129.39 158.25 126.88 158.73 C 126.77 158.18 126.57 157.06 126.47 156.51 C 128.31 156.27 130.48 156.44 131.46 154.50 C 129.35 153.79 126.24 154.37 125.07 151.99 Z" />
<path fill="#080808" opacity="1.00" d=" M 118.94 150.70 C 119.93 150.43 120.92 150.17 121.91 149.92 C 122.58 153.47 123.34 157.01 124.04 160.56 C 122.97 160.25 121.89 159.97 120.81 159.72 C 119.15 161.29 116.35 162.77 114.50 160.60 C 112.67 158.14 112.79 154.82 112.05 151.95 C 112.79 151.78 114.27 151.43 115.01 151.26 C 115.62 153.85 115.63 156.75 117.24 158.98 C 118.41 159.23 119.33 158.87 120.01 157.88 C 120.21 155.45 119.38 153.07 118.94 150.70 Z" />
<path fill="#080808" opacity="1.00" d=" M 78.48 152.45 C 80.55 149.57 85.57 149.96 87.14 153.16 C 87.65 154.69 87.37 156.33 87.41 157.91 C 84.73 157.36 82.06 156.80 79.36 156.43 C 80.68 159.15 83.61 159.32 86.24 159.61 C 85.98 162.77 82.19 161.54 80.22 160.89 C 76.83 159.63 76.17 154.99 78.48 152.45 M 79.72 154.15 C 81.61 154.58 83.51 154.90 85.43 155.21 C 85.05 154.67 84.30 153.59 83.93 153.05 C 82.50 151.67 81.02 153.55 79.72 154.15 Z" />
<path fill="#080808" opacity="1.00" d=" M 90.90 151.96 C 92.00 152.38 93.30 152.58 93.90 153.79 C 94.74 153.36 96.43 152.50 97.28 152.07 C 97.27 152.82 97.26 154.32 97.26 155.07 C 96.19 155.34 95.13 155.64 94.08 155.97 C 93.38 158.20 93.35 160.56 93.09 162.86 C 92.35 162.81 90.86 162.72 90.12 162.67 C 90.36 159.10 90.65 155.53 90.90 151.96 Z" />
</g>
<g id="#ec0a25ff">
<path fill="#ec0a25" opacity="1.00" d=" M 44.88 33.54 C 47.26 35.23 49.78 36.72 52.45 37.91 C 48.53 38.09 44.73 39.02 41.02 40.25 C 40.57 40.67 39.67 41.52 39.21 41.94 C 39.93 43.04 40.65 44.15 41.38 45.25 C 40.92 46.64 40.45 48.03 39.97 49.41 C 41.32 52.97 45.10 54.06 48.09 55.83 C 50.47 57.51 53.49 56.75 56.20 56.82 C 56.91 60.30 57.89 64.14 61.77 65.26 C 61.52 65.68 61.04 66.50 60.79 66.92 C 59.98 66.50 59.18 66.09 58.37 65.67 C 57.39 68.12 56.53 70.80 58.25 73.16 C 57.80 73.37 56.92 73.80 56.48 74.01 C 55.09 71.57 53.36 69.24 50.20 69.93 C 49.74 73.22 50.13 76.51 51.34 79.61 C 50.24 79.07 49.21 78.42 48.26 77.66 C 47.72 74.98 48.95 70.62 45.13 70.11 C 42.11 71.80 42.71 75.79 42.07 78.67 C 39.54 76.74 41.12 73.70 41.07 71.13 C 40.40 70.27 39.69 69.44 38.95 68.65 C 36.17 70.71 36.55 75.78 32.49 75.97 C 33.94 73.31 35.55 70.14 34.01 67.14 C 32.18 67.02 30.36 66.78 28.61 66.23 C 29.57 65.89 31.48 65.21 32.43 64.87 C 32.32 63.03 32.04 61.20 31.73 59.38 C 29.89 60.29 28.31 60.09 27.32 58.21 C 28.73 57.72 30.63 58.01 31.61 56.63 C 31.85 54.86 31.79 53.07 31.83 51.30 C 31.09 51.43 29.62 51.69 28.88 51.83 C 28.61 51.19 28.08 49.92 27.82 49.29 C 29.32 48.85 31.90 49.73 32.44 47.71 C 32.84 46.44 33.20 45.15 33.53 43.86 C 31.68 43.42 30.52 42.31 30.61 40.28 C 31.83 40.90 33.05 41.53 34.26 42.18 C 35.45 41.03 36.64 39.87 37.83 38.71 C 36.86 37.47 35.93 36.14 36.82 34.56 C 37.58 35.36 38.32 36.17 39.06 36.99 C 41.36 36.88 43.66 36.77 45.96 36.72 C 45.60 35.66 45.24 34.60 44.88 33.54 Z" />
<path fill="#ec0a25" opacity="1.00" d=" M 66.45 41.08 C 67.82 39.84 69.12 38.53 70.57 37.37 C 70.15 38.61 69.73 39.84 69.29 41.07 C 69.50 41.21 69.93 41.51 70.14 41.65 C 71.48 40.08 73.02 38.70 75.25 38.90 C 73.98 40.82 72.68 42.73 71.65 44.80 C 72.92 45.44 74.19 46.07 75.45 46.71 C 73.29 48.44 70.97 50.68 67.96 49.67 C 65.86 51.63 64.46 54.14 63.55 56.85 C 63.08 58.95 60.73 59.45 59.16 60.50 C 58.77 59.31 58.39 58.12 58.01 56.93 C 60.48 56.39 62.20 54.80 62.95 52.40 C 60.45 52.20 57.95 52.07 55.46 51.71 C 58.12 50.91 60.91 50.99 63.63 50.56 C 64.54 47.54 66.69 43.56 63.50 41.15 C 64.11 40.33 64.71 39.52 65.32 38.72 C 65.60 39.31 66.17 40.49 66.45 41.08 Z" />
<path fill="#ec0a25" opacity="1.00" d=" M 46.16 39.99 C 49.11 40.08 52.32 39.41 54.98 41.05 C 57.78 42.55 60.99 42.90 64.03 43.68 C 63.50 45.44 63.00 47.21 62.52 48.98 C 59.95 49.08 57.39 49.18 54.82 49.30 C 54.83 50.75 54.84 52.20 54.85 53.65 C 56.92 53.73 58.98 53.81 61.04 53.98 C 57.53 55.86 53.39 54.87 49.59 54.95 C 47.29 52.94 43.98 52.37 41.97 50.07 C 42.08 48.14 42.69 46.30 43.14 44.43 C 42.32 43.61 41.50 42.78 40.68 41.94 C 41.94 41.77 43.19 41.60 44.45 41.43 C 44.88 41.07 45.73 40.35 46.16 39.99 M 50.22 44.64 C 51.85 44.40 53.44 43.97 55.04 43.56 C 53.97 42.72 52.90 41.90 51.82 41.09 C 51.13 42.20 49.96 43.20 50.22 44.64 Z" />
<path fill="#ec0a25" opacity="1.00" d=" M 69.37 57.48 C 72.38 56.40 75.83 54.71 78.86 56.64 C 77.78 56.87 75.63 57.33 74.55 57.56 C 76.74 58.78 80.45 59.58 79.73 62.87 C 78.23 61.94 76.80 60.89 75.17 60.19 C 75.80 61.77 76.78 63.24 76.98 64.96 C 75.51 64.87 74.09 64.49 72.69 64.10 C 70.89 64.46 69.10 64.86 67.30 65.23 C 63.75 69.77 61.50 75.27 57.39 79.38 C 55.85 81.16 53.42 81.25 51.24 81.35 C 52.20 80.46 53.16 79.56 54.13 78.68 C 53.40 78.05 52.67 77.41 51.93 76.77 C 51.89 74.87 51.86 72.97 51.87 71.08 C 53.53 72.64 54.62 75.14 57.00 75.71 C 58.65 75.23 59.52 73.68 60.54 72.43 C 59.71 71.15 59.04 69.79 58.54 68.36 C 59.44 68.31 61.24 68.20 62.14 68.15 C 62.62 66.28 63.06 64.41 63.48 62.53 C 62.07 62.70 60.67 62.85 59.27 62.98 C 62.15 60.37 65.87 59.03 69.37 57.48 Z" />
<path fill="#ec0a25" opacity="1.00" d=" M 12.35 58.54 C 15.15 57.76 18.64 56.40 21.03 58.87 C 23.34 60.77 22.77 63.94 20.77 65.79 C 21.11 70.05 21.91 74.72 19.69 78.63 C 17.41 82.91 13.81 86.89 13.83 92.02 C 13.59 95.89 16.31 99.84 20.16 100.65 C 22.38 101.27 25.15 100.94 26.36 103.36 C 23.33 103.35 20.04 103.48 17.39 101.76 C 13.05 99.25 11.08 93.59 12.53 88.86 C 13.91 83.44 18.66 79.55 19.59 73.96 C 20.09 71.36 19.49 68.74 19.04 66.18 C 14.80 66.04 14.11 61.49 12.35 58.54 Z" />
<path fill="#ec0a25" opacity="1.00" d=" M 38.41 71.22 C 38.75 71.26 39.42 71.35 39.76 71.39 C 39.34 73.22 38.78 75.05 38.77 76.94 C 39.10 78.52 40.83 79.17 41.87 80.23 C 42.79 79.83 43.71 79.43 44.63 79.03 C 44.00 76.40 44.28 73.70 45.38 71.23 C 46.28 73.45 46.19 75.89 46.79 78.19 C 48.18 80.68 50.65 82.29 53.06 83.68 C 48.46 87.28 44.04 91.64 42.79 97.58 C 41.06 98.34 38.65 98.60 38.25 100.85 C 41.62 100.25 45.18 99.12 48.53 100.41 C 51.68 101.55 52.42 106.05 50.45 108.53 C 48.02 111.58 43.87 112.51 41.36 115.46 C 40.72 117.68 42.76 119.39 44.18 120.77 C 46.99 123.44 50.63 124.86 54.30 125.93 C 56.57 126.46 56.51 129.19 57.16 130.96 C 56.76 131.18 55.95 131.63 55.55 131.86 C 54.90 129.85 54.29 127.72 52.29 126.63 C 52.59 128.74 53.00 130.84 53.40 132.94 C 52.11 132.95 50.83 132.96 49.54 132.96 C 48.80 130.83 48.43 128.07 45.88 127.34 C 46.27 129.24 46.75 131.13 47.21 133.02 C 45.69 132.63 43.43 133.20 42.86 131.26 C 40.30 125.69 35.71 121.55 30.76 118.12 C 32.21 116.20 34.39 114.51 34.72 111.99 C 34.37 106.65 27.50 105.13 26.70 99.98 C 26.13 95.84 29.08 92.54 31.33 89.44 C 35.41 84.13 35.85 77.22 38.41 71.22 Z" />
<path fill="#ec0a25" opacity="1.00" d=" M 31.26 108.12 C 31.86 109.38 32.50 110.64 32.99 111.95 C 32.05 114.41 29.16 116.05 29.18 118.83 C 33.38 122.88 38.60 126.10 41.12 131.62 C 40.29 131.83 38.63 132.26 37.80 132.47 C 35.34 126.41 30.40 122.10 25.36 118.21 C 27.37 114.87 30.52 112.17 31.26 108.12 Z" />
</g>
<g id="#ff3250ff">
<path fill="#ff3250" opacity="1.00" d=" M 152.33 35.63 C 153.40 34.91 154.43 34.14 155.42 33.31 C 155.19 34.16 154.73 35.86 154.50 36.71 C 156.76 36.70 159.02 36.80 161.29 36.91 C 161.95 36.04 162.62 35.18 163.30 34.32 C 164.57 35.91 163.60 37.42 162.61 38.82 C 163.72 39.84 164.74 41.00 166.03 41.81 C 167.30 41.33 168.57 40.82 169.83 40.29 C 169.92 42.20 168.98 43.58 167.06 43.99 C 167.68 45.53 167.41 47.77 168.94 48.76 C 169.91 48.82 171.84 48.92 172.81 48.97 C 172.63 51.32 170.75 51.68 168.80 51.80 C 168.71 53.37 168.62 54.95 168.51 56.53 C 169.91 57.28 171.43 57.71 173.00 58.00 C 172.56 58.66 171.68 59.99 171.24 60.66 C 170.66 60.30 169.50 59.58 168.92 59.22 C 168.63 61.00 167.67 62.85 168.37 64.64 C 169.47 65.20 170.60 65.70 171.76 66.16 C 170.34 67.87 168.48 67.14 166.73 66.58 C 165.25 69.71 166.06 73.08 168.05 75.79 C 163.93 76.43 163.99 71.15 161.84 68.82 C 160.95 69.59 160.03 70.33 159.22 71.18 C 159.26 73.78 161.08 76.94 158.25 78.69 C 158.05 75.44 157.56 72.08 155.15 69.67 C 152.82 71.04 151.97 73.39 152.24 76.00 C 152.68 78.17 150.49 78.88 148.96 79.64 C 150.10 76.47 150.59 73.13 150.05 69.78 C 147.70 69.72 145.79 70.83 144.63 72.86 C 144.14 74.20 142.96 73.65 141.96 73.37 C 143.68 71.12 143.00 68.54 142.14 66.14 C 140.74 66.54 139.24 66.95 138.38 65.41 C 142.38 64.28 143.35 60.34 144.11 56.78 C 146.89 56.69 150.00 57.45 152.44 55.70 C 154.56 54.37 156.96 53.45 158.90 51.85 C 160.89 49.99 159.40 47.24 158.94 45.06 C 159.73 43.94 160.52 42.82 161.31 41.70 C 157.31 39.23 152.68 38.09 147.99 38.09 C 149.46 37.30 150.90 36.48 152.33 35.63 Z" />
<path fill="#ff3250" opacity="1.00" d=" M 129.67 37.32 C 131.47 38.33 132.85 39.88 134.19 41.42 C 134.28 40.66 134.47 39.12 134.56 38.36 C 135.46 39.42 136.35 40.49 137.25 41.57 C 136.63 41.93 135.41 42.66 134.80 43.02 C 135.39 45.67 136.07 48.29 136.80 50.90 C 139.21 50.86 141.61 50.88 144.02 50.90 L 144.12 52.12 C 141.93 52.17 139.73 52.24 137.54 52.36 C 138.15 54.82 139.86 56.51 142.44 56.73 C 142.07 58.07 141.70 59.41 141.33 60.75 C 140.04 59.95 138.71 59.22 137.50 58.30 C 136.14 55.21 134.97 51.94 132.32 49.67 C 129.37 50.77 127.18 48.42 125.02 46.87 C 126.21 46.17 127.40 45.47 128.60 44.77 C 127.54 42.67 126.35 40.64 125.30 38.54 C 127.40 38.72 128.88 40.10 130.18 41.61 L 131.06 41.08 C 130.58 39.83 130.11 38.58 129.67 37.32 Z" />
<path fill="#ff3250" opacity="1.00" d=" M 145.85 40.76 C 148.37 39.36 151.38 40.05 154.14 39.90 C 154.85 40.42 155.57 40.94 156.29 41.46 C 157.10 41.52 158.74 41.65 159.56 41.71 C 158.83 42.68 158.10 43.66 157.36 44.63 C 157.76 46.37 158.42 48.09 158.42 49.90 C 157.65 51.67 155.54 52.08 154.05 53.05 C 149.74 55.95 143.78 55.91 139.13 53.92 C 141.22 53.74 143.32 53.69 145.42 53.66 C 145.43 52.20 145.44 50.75 145.44 49.29 C 142.92 49.22 140.40 49.14 137.89 49.05 C 137.43 47.23 136.92 45.42 136.41 43.61 C 139.59 42.78 142.96 42.45 145.85 40.76 M 145.36 43.64 C 146.79 43.94 148.21 44.34 149.66 44.51 C 150.67 43.34 149.14 42.25 148.75 41.16 C 147.62 41.99 146.48 42.80 145.36 43.64 Z" />
<path fill="#ff3250" opacity="1.00" d=" M 121.32 56.43 C 125.89 54.50 130.54 57.37 134.71 59.08 C 136.71 60.29 139.52 60.68 140.80 62.79 C 139.85 62.79 137.95 62.80 136.99 62.80 C 137.14 65.38 137.79 68.52 141.05 68.47 C 141.36 69.09 141.68 69.72 141.99 70.34 C 141.38 70.78 140.16 71.64 139.54 72.07 C 140.80 73.51 141.77 75.68 144.01 75.60 C 146.01 74.63 146.91 72.42 148.37 70.87 C 149.44 73.79 148.56 76.73 146.54 78.97 C 147.24 79.53 148.64 80.64 149.35 81.20 C 147.45 81.22 145.32 81.55 143.80 80.12 C 138.99 76.08 136.89 69.88 132.89 65.15 C 131.14 64.82 129.41 64.46 127.67 64.11 C 126.04 64.82 124.35 65.06 122.78 64.09 C 123.75 62.89 124.70 61.66 125.62 60.42 C 123.60 60.58 122.12 62.04 120.52 63.09 C 120.30 59.88 123.25 58.71 125.67 57.56 C 124.58 57.27 122.41 56.71 121.32 56.43 Z" />
<path fill="#ff3250" opacity="1.00" d=" M 179.55 58.56 C 182.04 56.25 185.48 57.65 188.25 58.56 C 186.37 61.66 185.50 66.17 181.17 66.58 C 180.71 70.79 180.35 75.41 182.84 79.10 C 185.96 84.02 189.91 89.64 187.85 95.77 C 186.17 101.66 179.66 104.24 173.99 103.52 C 174.85 100.46 178.24 101.27 180.60 100.44 C 184.92 99.30 187.26 94.28 186.25 90.10 C 185.40 85.18 181.69 81.53 179.84 77.04 C 178.33 73.34 178.92 69.25 179.76 65.46 C 179.22 65.12 178.14 64.42 177.60 64.08 C 177.89 62.15 177.67 59.77 179.55 58.56 Z" />
<path fill="#ff3250" opacity="1.00" d=" M 160.95 70.21 C 164.88 75.47 164.50 82.54 168.17 87.92 C 170.48 91.65 174.43 95.10 173.78 99.92 C 173.12 104.78 167.15 106.36 165.89 110.93 C 165.18 113.94 168.16 115.94 169.67 118.12 C 166.40 120.68 162.88 123.08 160.44 126.52 C 159.02 128.48 158.06 130.73 156.61 132.67 C 155.41 132.99 154.17 132.63 152.97 132.56 C 153.44 130.77 153.94 128.99 154.40 127.20 C 152.21 128.40 151.48 130.67 150.98 132.95 C 149.62 132.91 148.27 132.87 146.91 132.83 C 147.30 130.72 147.73 128.62 148.00 126.50 C 146.20 128.12 145.16 130.32 144.05 132.43 C 143.51 130.21 143.17 126.91 145.86 125.95 C 150.41 124.74 154.88 122.62 157.93 118.90 C 158.78 117.96 159.22 116.67 158.88 115.41 C 156.30 112.46 152.04 111.54 149.70 108.31 C 147.88 105.88 148.67 101.77 151.53 100.48 C 154.90 98.95 158.61 100.12 162.04 100.80 C 161.56 98.60 159.18 98.36 157.45 97.62 C 156.30 91.67 151.88 87.24 147.22 83.74 C 149.73 82.22 152.41 80.49 153.71 77.76 C 154.05 75.63 154.08 73.47 154.28 71.33 C 156.94 73.07 156.12 76.48 155.76 79.11 C 157.65 79.89 160.02 79.99 161.13 77.90 C 161.94 75.43 160.84 72.75 160.95 70.21 Z" />
<path fill="#ff3250" opacity="1.00" d=" M 167.04 112.00 C 167.77 110.71 168.50 109.43 169.25 108.15 C 170.17 112.09 172.76 115.19 175.45 118.06 C 170.28 121.86 165.20 126.18 162.82 132.33 C 161.93 132.21 160.14 131.98 159.24 131.87 C 161.62 125.85 167.39 122.62 171.70 118.20 C 170.17 116.12 168.57 114.08 167.04 112.00 Z" />
</g>
<g id="#fff41aff">
<path fill="#fff41a" opacity="1.00" d=" M 78.09 40.22 C 92.19 35.24 107.98 35.19 122.11 40.10 C 124.01 40.63 125.35 42.15 126.76 43.43 C 124.50 44.94 122.97 47.27 125.24 49.60 C 124.82 50.90 124.39 52.19 123.95 53.48 C 119.82 54.58 119.87 59.39 118.77 62.73 C 107.19 57.33 93.16 57.16 81.62 62.75 C 80.46 59.40 80.69 54.49 76.48 53.42 C 75.99 52.06 75.52 50.69 75.03 49.33 C 75.52 48.71 76.50 47.46 76.99 46.84 C 75.92 45.72 74.82 44.62 73.71 43.53 C 75.05 42.29 76.27 40.76 78.09 40.22 M 87.58 48.50 C 89.10 51.26 92.50 49.91 94.81 49.22 C 93.35 51.55 90.97 52.83 88.50 53.85 C 90.14 55.69 92.51 54.36 94.15 53.24 C 97.67 50.62 97.37 43.65 92.91 42.17 C 89.51 41.14 85.54 45.21 87.58 48.50 M 100.40 42.51 C 97.34 45.54 97.31 52.65 102.12 53.95 C 106.92 54.61 108.41 48.41 107.26 44.81 C 106.69 41.74 102.74 40.62 100.40 42.51 M 79.81 48.65 C 80.40 48.11 81.56 47.04 82.14 46.50 C 83.04 49.73 84.01 52.95 84.99 56.16 C 85.57 55.95 86.75 55.54 87.33 55.34 C 86.04 51.43 84.90 47.48 83.58 43.58 C 81.89 44.89 78.20 45.92 79.81 48.65 M 108.52 50.93 C 110.41 51.50 112.33 52.00 114.25 52.48 C 114.20 53.96 113.68 55.75 115.49 56.36 C 116.12 54.81 116.94 53.34 118.67 52.86 C 116.33 50.42 118.64 47.27 119.12 44.51 C 118.36 44.32 116.83 43.94 116.06 43.75 C 113.42 46.01 110.71 48.21 108.52 50.93 Z" />
<path fill="#fff41a" opacity="1.00" d=" M 100.84 46.96 C 100.77 45.02 102.27 43.73 103.58 42.56 C 105.47 45.34 105.83 49.23 103.79 52.03 C 100.83 52.88 100.49 48.98 100.84 46.96 Z" />
<path fill="#fff41a" opacity="1.00" d=" M 88.87 45.98 C 89.88 45.27 90.58 43.81 91.99 43.89 C 93.18 44.64 93.72 46.03 94.56 47.09 C 93.45 47.57 92.37 48.10 91.23 48.48 C 90.26 47.84 89.63 46.83 88.87 45.98 Z" />
<path fill="#fff41a" opacity="1.00" d=" M 111.59 50.04 C 113.26 48.46 114.93 46.88 116.66 45.36 C 116.12 47.21 115.55 49.05 115.00 50.89 C 113.86 50.61 112.73 50.33 111.59 50.04 Z" />
<path fill="#fff41a" opacity="1.00" d=" M 31.21 136.89 C 37.04 135.54 43.07 134.94 49.04 135.46 C 60.98 136.34 72.26 140.66 83.94 142.93 C 94.51 145.10 105.51 145.12 116.08 142.96 C 127.74 140.71 138.99 136.37 150.89 135.38 C 157.06 134.74 163.28 135.42 169.31 136.77 C 167.68 143.84 166.27 150.97 164.37 157.98 C 157.48 155.87 150.04 156.13 143.12 158.00 C 135.87 159.91 128.86 162.66 121.51 164.23 C 104.00 168.07 85.47 167.02 68.48 161.34 C 58.09 157.77 46.87 154.43 35.94 157.77 C 34.34 150.82 32.80 143.85 31.21 136.89 M 42.38 138.96 C 42.45 143.77 42.74 148.56 42.84 153.37 C 46.00 153.27 49.15 153.18 52.30 153.11 C 52.26 152.44 52.16 151.10 52.11 150.43 C 50.03 150.51 47.94 150.59 45.86 150.68 C 45.75 146.75 45.64 142.83 45.48 138.91 C 44.71 138.92 43.16 138.95 42.38 138.96 M 147.48 142.58 C 147.50 146.10 147.51 149.63 147.51 153.16 C 148.23 153.15 149.67 153.14 150.40 153.14 C 150.43 150.93 150.24 148.70 150.58 146.51 C 150.94 145.12 152.47 144.61 153.72 145.16 C 155.29 147.49 154.35 150.51 154.61 153.15 C 155.35 153.14 156.83 153.12 157.57 153.11 C 157.24 149.79 158.59 145.59 155.70 143.10 C 153.99 142.10 152.20 143.14 150.55 143.70 C 149.53 143.32 148.50 142.94 147.48 142.58 M 54.36 151.73 C 55.78 154.68 59.49 154.64 62.25 155.14 C 62.32 154.58 62.46 153.47 62.53 152.91 C 59.98 152.58 57.20 152.20 56.09 149.48 C 58.69 149.97 61.26 150.63 63.82 151.32 C 64.90 148.51 64.20 144.67 60.86 143.90 C 56.49 142.33 52.23 147.79 54.36 151.73 M 135.07 151.08 C 136.07 155.84 144.13 156.07 145.54 151.59 C 142.77 151.99 139.60 153.32 137.39 150.88 C 139.99 150.28 142.62 149.82 145.25 149.32 C 144.49 147.40 143.95 145.02 141.80 144.20 C 137.83 142.68 133.49 147.15 135.07 151.08 M 66.81 145.71 C 66.98 149.40 67.13 153.09 67.17 156.79 C 68.09 157.24 69.02 157.70 69.95 158.16 C 72.50 155.32 75.05 152.48 77.70 149.74 C 76.94 149.40 75.41 148.71 74.65 148.37 C 72.97 150.52 71.33 152.71 69.70 154.91 C 69.92 152.28 70.12 149.65 70.25 147.01 C 69.10 146.57 67.96 146.14 66.81 145.71 M 99.69 147.84 C 99.78 152.91 100.00 157.98 100.36 163.05 C 101.04 163.01 102.42 162.95 103.11 162.92 C 103.29 161.27 103.46 159.63 103.69 157.99 C 104.90 159.53 106.07 161.11 107.21 162.71 C 108.52 162.71 109.83 162.70 111.14 162.68 C 109.52 160.66 107.83 158.68 106.14 156.71 C 107.46 155.17 108.79 153.63 110.07 152.05 C 108.81 152.18 107.55 152.31 106.29 152.45 C 105.25 153.94 104.20 155.44 103.13 156.92 C 102.97 153.84 102.87 150.77 102.75 147.69 C 101.73 147.74 100.71 147.79 99.69 147.84 M 125.07 151.99 C 126.24 154.37 129.35 153.79 131.46 154.50 C 130.48 156.44 128.31 156.27 126.47 156.51 C 126.57 157.06 126.77 158.18 126.88 158.73 C 129.39 158.25 133.36 158.12 133.76 154.85 C 133.92 151.21 129.32 151.72 127.02 150.33 C 128.46 149.83 129.92 149.39 131.39 148.99 C 131.32 148.45 131.19 147.36 131.12 146.82 C 128.49 147.37 124.25 148.35 125.07 151.99 M 118.94 150.70 C 119.38 153.07 120.21 155.45 120.01 157.88 C 119.33 158.87 118.41 159.23 117.24 158.98 C 115.63 156.75 115.62 153.85 115.01 151.26 C 114.27 151.43 112.79 151.78 112.05 151.95 C 112.79 154.82 112.67 158.14 114.50 160.60 C 116.35 162.77 119.15 161.29 120.81 159.72 C 121.89 159.97 122.97 160.25 124.04 160.56 C 123.34 157.01 122.58 153.47 121.91 149.92 C 120.92 150.17 119.93 150.43 118.94 150.70 M 78.48 152.45 C 76.17 154.99 76.83 159.63 80.22 160.89 C 82.19 161.54 85.98 162.77 86.24 159.61 C 83.61 159.32 80.68 159.15 79.36 156.43 C 82.06 156.80 84.73 157.36 87.41 157.91 C 87.37 156.33 87.65 154.69 87.14 153.16 C 85.57 149.96 80.55 149.57 78.48 152.45 M 90.90 151.96 C 90.65 155.53 90.36 159.10 90.12 162.67 C 90.86 162.72 92.35 162.81 93.09 162.86 C 93.35 160.56 93.38 158.20 94.08 155.97 C 95.13 155.64 96.19 155.34 97.26 155.07 C 97.26 154.32 97.27 152.82 97.28 152.07 C 96.43 152.50 94.74 153.36 93.90 153.79 C 93.30 152.58 92.00 152.38 90.90 151.96 Z" />
<path fill="#fff41a" opacity="1.00" d=" M 57.22 147.61 C 57.41 147.12 57.79 146.15 57.98 145.66 C 59.97 145.67 61.39 146.64 62.05 148.51 C 60.43 148.23 58.82 147.92 57.22 147.61 Z" />
<path fill="#fff41a" opacity="1.00" d=" M 136.88 148.85 C 137.63 147.20 138.90 146.02 140.71 145.64 C 141.06 146.17 141.77 147.23 142.12 147.76 C 140.38 148.16 138.64 148.55 136.88 148.85 Z" />
<path fill="#fff41a" opacity="1.00" d=" M 79.72 154.15 C 81.02 153.55 82.50 151.67 83.93 153.05 C 84.30 153.59 85.05 154.67 85.43 155.21 C 83.51 154.90 81.61 154.58 79.72 154.15 Z" />
</g>
</svg>
